<?xml version="1.0" standalone="no"?><!DOCTYPE svg PUBLIC "-//W3C//DTD SVG 1.1//EN" "http://www.w3.org/Graphics/SVG/1.1/DTD/svg11.dtd" ><svg xmlns="http://www.w3.org/2000/svg"><metadata></metadata><defs><font id="H-ShinYaLan-Regular" horiz-adv-x="1000"><font-face font-family="H-ShinYaLan" font-weight="400" font-stretch="normal" units-per-em="1000" panose-1="2 11 4 0 0 0 0 0 0 0" ascent="1201" descent="-299" x-height="0" bbox="-32 -134 988 944" underline-thickness="50" underline-position="-75" unicode-range="U+002c-f8ea" /><missing-glyph horiz-adv-x="1000" d="M100 880 l800 0 l0 -1000 l-800 0 l0 1000 ZM818 830 l-636 0 l318 -409 l318 409 ZM850 -29 l0 818 l-318 -409 l318 -409 ZM818 -70 l-318 409 l-318 -409 l636 0 ZM150 -29 l318 409 l-318 409 l0 -818 Z" /><glyph glyph-name="" unicode="," d="M184 116 l0 -117 q0 -62 -48 -83 q-27 -12 -61 -13 l0 50 q33 3 43 13 q9 9 9 34 l-52 0 l0 116 l109 0 Z" /><glyph glyph-name="" unicode="1" d="M462 788 l0 -788 l-97 0 l0 701 l-150 0 l0 87 l247 0 Z" /><glyph glyph-name="" unicode="a" d="M733 0 l-108 0 l-71 202 l-349 0 l-71 -202 l-108 0 l290 788 l127 0 l290 -788 ZM380 699 l-145 -413 l289 0 l-144 413 Z" /><glyph glyph-name="" unicode="d" d="M420 788 q145 0 206 -40 q61 -40 90 -116 q33 -90 33 -236 q0 -219 -65 -308 q-66 -88 -241 -88 l-363 0 l0 788 l340 0 ZM177 701 l0 -614 l259 0 q129 0 174 62 q43 63 43 246 q0 155 -36 225 q-32 63 -111 76 q-38 5 -85 5 l-244 0 Z" /><glyph glyph-name="" unicode="e" d="M640 788 l0 -87 l-466 0 l0 -255 l441 0 l0 -85 l-441 0 l0 -274 l472 0 l0 -87 l-568 0 l0 788 l562 0 Z" /><glyph glyph-name="" unicode="f" d="M606 788 l0 -87 l-429 0 l0 -264 l407 0 l0 -86 l-407 0 l0 -351 l-95 0 l0 788 l524 0 Z" /><glyph glyph-name="" unicode="g" d="M649 536 q2 49 -15 82 q-15 35 -36 52 q-24 17 -58 26 q-54 14 -128 14 q-78 0 -123 -13 q-47 -14 -77 -51 q-31 -37 -40 -98 q-11 -58 -11 -150 q0 -93 4 -130 q5 -45 18 -84 q13 -40 41 -62 q58 -44 178 -44 q115 0 164 20 q25 11 46 28 q16 20 26 47 q18 48 16 151 l-256 0 l0 82 l352 0 q0 -144 -4 -184 q-5 -49 -23 -93 q-33 -80 -111 -109 q-78 -28 -188 -28 q-108 0 -174 17 q-64 17 -106 62 q-44 44 -62 121 q-17 77 -17 190 q0 117 13 185 q12 69 48 125 q37 54 106 80 q69 24 178 24 q92 0 121 -7 q38 -9 60 -16 q27 -9 49 -21 q23 -17 40 -33 q23 -19 36 -45 q30 -55 30 -138 l-97 0 Z" /><glyph glyph-name="" unicode="h" d="M638 363 l-462 0 l0 -363 l-96 0 l0 788 l96 0 l0 -339 l462 0 l0 339 l96 0 l0 -788 l-96 0 l0 363 Z" /><glyph glyph-name="" unicode="i" d="M178 788 l0 -788 l-97 0 l0 788 l97 0 Z" /><glyph glyph-name="" unicode="j" d="M548 788 l0 -551 q0 -56 -10 -95 q-9 -37 -35 -76 q-53 -74 -211 -74 q-159 0 -219 72 q-40 49 -43 132 q-2 42 -2 102 l97 0 q0 -117 8 -147 q21 -73 155 -73 q102 0 132 36 q32 36 32 135 l0 539 l96 0 Z" /><glyph glyph-name="" unicode="k" d="M582 788 l131 0 l-415 -384 l442 -404 l-138 0 l-422 396 l0 -396 l-96 0 l0 788 l96 0 l0 -377 l402 377 Z" /><glyph glyph-name="" unicode="l" d="M178 788 l0 -701 l428 0 l0 -87 l-524 0 l0 788 l96 0 Z" /><glyph glyph-name="" unicode="m" d="M530 0 l-115 0 l-243 707 q3 -81 3 -197 l0 -510 l-92 0 l0 788 l149 0 l240 -708 l240 708 l150 0 l0 -788 l-93 0 l0 510 q0 119 3 197 l-242 -707 Z" /><glyph glyph-name="" unicode="n" d="M225 788 l414 -695 l0 695 l95 0 l0 -788 l-145 0 l-413 695 l0 -695 l-96 0 l0 788 l145 0 Z" /><glyph glyph-name="" unicode="o" d="M71 257 q-6 56 -6 157 q0 104 16 177 q17 76 58 122 q42 47 107 65 q66 18 156 18 q90 0 144 -12 q53 -12 90 -38 q36 -25 59 -58 q23 -33 35 -81 q20 -85 20 -209 q0 -128 -16 -201 q-17 -76 -58 -123 q-43 -48 -108 -64 q-64 -18 -162 -18 q-98 0 -158 19 q-64 20 -96 51 q-34 29 -56 86 q-20 59 -25 109 ZM652 313 q1 20 1 95 q0 74 -5 113 q-3 42 -18 88 q-15 41 -44 61 q-59 40 -190 40 q-142 0 -187 -62 q-18 -26 -26 -45 q-10 -22 -14 -59 q-7 -50 -7 -135 q0 -81 3 -123 q3 -42 12 -81 q9 -37 26 -61 q16 -21 46 -38 q49 -28 170 -28 q142 0 187 62 q18 26 26 45 q10 22 14 59 q5 39 6 69 Z" /><glyph glyph-name="" unicode="r" d="M476 788 q222 0 222 -207 q0 -160 -128 -193 q61 -13 90 -56 q27 -40 27 -120 l0 -75 q0 -83 15 -137 l-100 0 q-10 47 -10 125 l0 79 q0 109 -65 132 q-33 11 -80 11 l-267 0 l0 -347 l-96 0 l0 788 l392 0 ZM180 702 l0 -270 l273 0 q32 0 51 3 q20 3 45 15 q52 24 52 123 q0 74 -34 101 q-34 28 -109 28 l-278 0 Z" /><glyph glyph-name="" unicode="s" d="M568 553 q1 94 -44 126 q-44 32 -166 32 q-113 0 -154 -32 q-16 -13 -30 -41 q-12 -28 -12 -76 q0 -48 27 -72 q26 -26 84 -32 l218 -24 q32 -3 49 -6 q21 -5 53 -18 q31 -13 54 -34 q21 -20 37 -61 q16 -39 16 -95 q0 -55 -18 -99 q-18 -43 -46 -67 q-28 -25 -70 -38 q-70 -24 -182 -24 q-182 0 -252 61 q-71 62 -72 202 l97 0 q0 -50 7 -77 q8 -28 30 -54 q43 -46 180 -46 q137 0 182 32 q48 30 48 102 q0 71 -29 102 q-28 28 -94 36 l-236 25 q-55 6 -91 27 q-38 22 -55 54 q-30 56 -30 111 q0 55 12 91 q12 37 29 58 q15 20 46 39 q33 18 52 24 q21 7 56 12 q45 5 102 5 q56 0 112 -8 q52 -9 85 -27 q33 -18 53 -38 q20 -19 31 -51 q16 -49 18 -119 l-97 0 Z" /><glyph glyph-name="" unicode="t" d="M391 701 l0 -701 l-97 0 l0 701 l-275 0 l0 87 l647 0 l0 -87 l-275 0 Z" /><glyph glyph-name="" unicode="u" d="M176 788 l0 -514 q0 -44 8 -78 q9 -32 32 -61 q47 -57 182 -57 q134 0 188 46 q52 48 52 152 l0 512 l96 0 l0 -525 q0 -127 -76 -199 q-75 -72 -249 -72 q-174 0 -251 69 q-78 69 -78 202 l0 525 l96 0 Z" /><glyph glyph-name="" unicode="w" d="M500 695 l-153 -695 l-133 0 l-189 788 l101 0 l155 -702 l152 702 l134 0 l152 -702 l155 702 l101 0 l-189 -788 l-133 0 l-153 695 Z" /><glyph glyph-name="" unicode="x" d="M380 355 l-239 -355 l-120 0 l290 408 l-264 380 l116 0 l217 -326 l216 326 l116 0 l-264 -380 l290 -408 l-120 0 l-238 355 Z" /><glyph glyph-name="" unicode="y" d="M428 0 l-97 0 l0 318 l-311 470 l116 0 l244 -380 l243 380 l116 0 l-311 -470 l0 -318 Z" /><glyph glyph-name="" unicode="a" d="M559 119 q0 -83 16 -119 l-87 0 q-10 34 -10 72 q-22 -41 -63 -61 q-39 -19 -141 -19 q-126 0 -174 42 q-21 16 -36 50 q-14 36 -14 80 q0 111 69 154 q19 12 47 19 q34 8 51 9 l198 8 q46 0 55 30 q5 15 5 38 q0 54 -31 76 q-34 20 -120 20 q-89 0 -126 -19 q-36 -19 -37 -86 l-89 0 q2 110 72 149 q62 35 154 35 q95 0 143 -13 q51 -12 75 -39 q27 -27 34 -59 q9 -30 9 -79 l0 -288 ZM474 302 q-15 -22 -55 -23 l-173 -6 q-74 -1 -94 -41 q-14 -30 -14 -67 q0 -56 36 -76 q35 -19 123 -19 q86 0 132 32 q45 33 45 113 l0 87 Z" /><glyph glyph-name="" unicode="e" d="M135 268 q0 -99 17 -128 q23 -40 54 -50 q51 -17 131 -17 q80 0 117 23 q33 24 38 92 l91 0 q-9 -110 -71 -154 q-61 -42 -183 -42 q-162 0 -223 64 q-60 65 -60 230 q0 81 10 130 q9 53 36 96 q54 85 223 85 q76 0 129 -17 q52 -16 80 -40 q28 -22 40 -72 q14 -49 16 -88 q3 -36 3 -112 l-448 0 ZM492 342 q-2 54 -8 78 q-6 30 -24 54 q-18 23 -52 32 q-34 10 -92 10 q-55 0 -93 -11 q-36 -10 -54 -36 q-18 -25 -25 -53 q-6 -27 -9 -74 l357 0 Z" /><glyph glyph-name="" unicode="f" d="M121 632 q0 83 31 115 q12 13 34 29 q19 10 50 14 q50 8 121 6 l0 -82 q-78 4 -103 -6 q-25 -10 -34 -27 q-10 -16 -10 -46 l0 -46 l147 0 l0 -83 l-147 0 l0 -506 l-89 0 l0 506 l-108 0 l0 83 l108 0 l0 43 Z" /><glyph glyph-name="" unicode="g" d="M660 538 q-43 -2 -57 -8 q-16 -7 -27 -27 q19 -32 19 -83 q0 -53 -17 -87 q-14 -35 -50 -54 q-35 -17 -74 -25 q-40 -6 -99 -6 q-135 0 -181 32 q-36 -24 -36 -48 q0 -40 56 -45 l282 -19 q90 -6 124 -42 q35 -35 35 -101 q0 -90 -65 -125 q-64 -34 -222 -34 q-156 0 -228 30 q-70 32 -70 114 q0 81 65 116 q-42 13 -53 48 q-6 18 -6 36 q0 14 2 28 q1 10 8 28 q15 36 63 47 q-34 38 -34 115 q0 95 61 132 q59 37 194 37 q135 0 180 -39 q9 17 18 27 q7 10 37 21 q30 11 75 11 l0 -79 ZM474 498 q-37 20 -125 20 q-91 0 -128 -20 q-39 -18 -39 -78 q0 -59 36 -77 q38 -18 131 -18 q93 0 127 20 q34 19 34 77 q0 57 -36 76 ZM211 113 q-10 1 -31 -9 q-22 -13 -24 -15 q-24 -22 -24 -59 q0 -35 14 -52 q31 -34 208 -34 q117 0 156 18 q39 20 39 60 q0 42 -28 57 q-30 16 -102 20 l-208 14 Z" /><glyph glyph-name="" unicode="h" d="M158 788 l0 -273 q52 82 190 82 q55 0 97 -14 q40 -13 63 -35 q20 -18 34 -50 q19 -42 19 -103 l0 -395 l-89 0 l0 382 q0 28 -4 44 q-4 20 -18 42 q-28 48 -126 48 q-97 0 -132 -45 q-34 -44 -34 -125 l0 -346 l-89 0 l0 788 l89 0 Z" /><glyph glyph-name="" unicode="i" d="M175 589 l0 -589 l-91 0 l0 589 l91 0 ZM183 788 l0 -105 l-107 0 l0 105 l107 0 Z" /><glyph glyph-name="" unicode="j" d="M197 788 l0 -105 l-107 0 l0 105 l107 0 ZM188 589 l0 -571 q0 -39 -6 -66 q-4 -24 -22 -46 q-31 -40 -138 -40 l0 83 q28 0 43 4 q16 4 23 17 q8 13 8 23 q2 7 2 35 l0 561 l90 0 Z" /><glyph glyph-name="" unicode="k" d="M404 589 l117 0 l-272 -274 l302 -315 l-118 0 l-281 307 l0 -307 l-89 0 l0 788 l89 0 l0 -464 l252 265 Z" /><glyph glyph-name="" unicode="l" d="M175 788 l0 -788 l-91 0 l0 788 l91 0 Z" /><glyph glyph-name="" unicode="m" d="M155 589 l2 -65 q64 73 171 73 q120 0 173 -89 q50 90 177 90 q57 0 96 -16 q40 -15 59 -34 q19 -18 29 -50 q8 -22 12 -46 l1 -17 l0 -435 l-89 0 l0 395 q0 21 -2 43 q-3 15 -14 36 q-23 41 -102 41 q-80 0 -114 -31 q-36 -30 -36 -102 l0 -382 l-89 0 l0 382 q0 79 -27 104 q-32 29 -96 29 q-148 0 -148 -127 l0 -388 l-89 0 l0 589 l86 0 Z" /><glyph glyph-name="" unicode="n" d="M154 589 l3 -74 q52 82 189 82 q110 0 162 -49 q53 -50 53 -149 l0 -399 l-89 0 l0 384 q0 25 -1 34 q-1 12 -9 33 q-7 20 -23 33 q-38 32 -119 32 q-106 0 -138 -60 q-13 -25 -20 -52 q-4 -34 -4 -59 l0 -345 l-89 0 l0 589 l85 0 Z" /><glyph glyph-name="" unicode="o" d="M315 597 q155 0 211 -62 q57 -61 57 -229 q0 -180 -42 -234 q-44 -57 -121 -72 q-46 -8 -105 -8 q-155 0 -212 62 q-57 62 -57 227 q0 181 42 235 q43 58 122 72 q44 9 105 9 ZM136 294 q0 -54 3 -86 q3 -33 13 -61 q9 -30 28 -43 q44 -30 135 -30 q87 0 121 22 q22 15 32 28 q11 16 17 45 q9 45 9 154 q0 108 -34 151 q-36 41 -145 41 q-92 0 -135 -31 q-34 -25 -42 -105 q-2 -40 -2 -85 Z" /><glyph glyph-name="" unicode="u" d="M158 589 l0 -382 q0 -25 1 -33 q1 -12 9 -35 q7 -21 22 -34 q14 -11 46 -22 q29 -10 73 -10 q81 0 123 39 q40 42 40 128 l0 349 l89 0 l0 -589 l-85 0 l-4 73 q-52 -81 -188 -81 q-111 0 -163 49 q-53 50 -53 150 l0 398 l90 0 Z" /><glyph glyph-name="" unicode="à" d="M305 792 l113 -141 l-68 0 l-156 141 l111 0 ZM559 119 q0 -83 16 -119 l-87 0 q-10 34 -10 72 q-22 -41 -63 -61 q-39 -19 -141 -19 q-126 0 -174 42 q-21 16 -36 50 q-14 36 -14 80 q0 111 69 154 q42 27 101 28 l195 8 q46 0 55 30 q5 15 5 38 q0 54 -31 76 q-34 20 -120 20 q-89 0 -126 -19 q-36 -19 -37 -86 l-89 0 q2 110 72 149 q62 35 154 35 q95 0 143 -13 q51 -12 75 -39 q27 -27 34 -59 q9 -30 9 -79 l0 -288 ZM474 302 q-15 -22 -55 -23 l-173 -6 q-74 -1 -94 -41 q-14 -30 -14 -67 q0 -56 36 -76 q35 -19 123 -19 q86 0 132 32 q45 33 45 113 l0 87 Z" /><glyph glyph-name="" unicode="á" d="M559 119 q0 -83 16 -119 l-87 0 q-10 34 -10 72 q-22 -41 -63 -61 q-39 -19 -141 -19 q-126 0 -174 42 q-21 16 -36 50 q-14 36 -14 80 q0 175 172 182 l193 8 q46 0 55 30 q5 15 5 38 q0 54 -31 76 q-34 20 -120 20 q-89 0 -126 -19 q-36 -19 -37 -86 l-89 0 q2 110 72 149 q62 35 154 35 q95 0 143 -13 q51 -12 75 -39 q27 -27 34 -59 q9 -30 9 -79 l0 -288 ZM474 302 q-15 -22 -55 -23 l-173 -6 q-74 -1 -94 -41 q-14 -30 -14 -67 q0 -56 36 -76 q35 -19 123 -19 q86 0 132 32 q45 33 45 113 l0 87 ZM278 651 l-69 0 l114 140 l111 0 l-156 -140 Z" /><glyph glyph-name="" unicode="â" d="M559 119 q0 -83 16 -119 l-87 0 q-10 34 -10 72 q-22 -41 -63 -61 q-39 -19 -141 -19 q-126 0 -174 42 q-21 16 -36 50 q-14 36 -14 80 q0 111 69 154 q42 27 102 28 l194 8 q46 0 55 30 q5 15 5 38 q0 54 -31 76 q-34 20 -120 20 q-89 0 -126 -19 q-36 -19 -37 -86 l-89 0 q2 110 72 149 q62 35 154 35 q95 0 143 -13 q51 -12 75 -39 q27 -27 34 -59 q9 -30 9 -79 l0 -288 ZM474 302 q-15 -22 -55 -23 l-173 -6 q-74 -1 -94 -41 q-14 -30 -14 -67 q0 -56 36 -76 q35 -19 123 -19 q86 0 132 32 q45 33 45 113 l0 87 ZM358 788 l118 -139 l-72 0 l-89 82 l-89 -82 l-72 0 l117 139 l87 0 Z" /><glyph glyph-name="" unicode="ã" d="M559 119 q0 -83 16 -119 l-87 0 q-10 34 -10 72 q-22 -41 -63 -61 q-39 -19 -141 -19 q-126 0 -174 42 q-21 16 -36 50 q-14 36 -14 80 q0 111 69 154 q42 27 102 28 l194 8 q46 0 55 30 q5 15 5 38 q0 54 -31 76 q-34 20 -120 20 q-89 0 -126 -19 q-36 -19 -37 -86 l-89 0 q2 110 72 149 q62 35 154 35 q95 0 143 -13 q51 -12 75 -39 q27 -27 34 -59 q9 -30 9 -79 l0 -288 ZM474 302 q-15 -22 -55 -23 l-173 -6 q-74 -1 -94 -41 q-14 -30 -14 -67 q0 -56 36 -76 q35 -19 123 -19 q86 0 132 32 q45 33 45 113 l0 87 ZM485 764 q-23 -89 -112 -89 q-33 0 -75 17 q-42 18 -59 18 q-35 0 -50 -33 l-45 0 q10 42 38 67 q29 24 64 24 q37 0 80 -18 q44 -18 71 -18 q27 0 42 32 l46 0 Z" /><glyph glyph-name="" unicode="ì" d="M175 589 l0 -589 l-91 0 l0 589 l91 0 ZM120 792 l113 -141 l-68 0 l-157 141 l112 0 Z" /><glyph glyph-name="" unicode="í" d="M175 589 l0 -589 l-91 0 l0 589 l91 0 ZM92 651 l-68 0 l114 140 l111 0 l-157 -140 Z" /><glyph glyph-name="" unicode="î" d="M175 589 l0 -589 l-91 0 l0 589 l91 0 ZM173 788 l118 -139 l-72 0 l-89 82 l-90 -82 l-72 0 l118 139 l87 0 Z" /><glyph glyph-name="" unicode="ï" d="M175 589 l0 -589 l-91 0 l0 589 l91 0 ZM81 774 l0 -98 l-105 0 l0 98 l105 0 ZM283 774 l0 -98 l-105 0 l0 98 l105 0 Z" /><glyph glyph-name="" unicode="ù" d="M305 792 l113 -141 l-68 0 l-156 141 l111 0 ZM158 589 l0 -382 q0 -25 1 -33 q1 -12 9 -35 q7 -21 22 -34 q14 -11 46 -22 q29 -10 73 -10 q81 0 123 39 q40 42 40 128 l0 349 l89 0 l0 -589 l-85 0 l-4 73 q-52 -81 -188 -81 q-111 0 -163 49 q-53 50 -53 150 l0 398 l90 0 Z" /><glyph glyph-name="" unicode="ú" d="M158 589 l0 -382 q0 -25 1 -33 q1 -12 9 -35 q7 -21 22 -34 q14 -11 46 -22 q29 -10 73 -10 q81 0 123 39 q40 42 40 128 l0 349 l89 0 l0 -589 l-85 0 l-4 73 q-52 -81 -188 -81 q-111 0 -163 49 q-53 50 -53 150 l0 398 l90 0 ZM278 651 l-69 0 l114 140 l111 0 l-156 -140 Z" /><glyph glyph-name="" unicode="&#x6216;" d="M476 223 l-379 0 l0 314 l379 0 l0 -314 ZM402 466 l-229 0 l0 -173 l229 0 l0 173 ZM771 851 q93 -46 148 -101 l-49 -53 l92 0 l0 -77 l-292 0 q5 -224 38 -368 q75 123 111 293 l78 -32 q-62 -221 -163 -359 q26 -75 52 -108 q24 -35 44 -35 q23 0 37 35 q12 31 32 130 l75 -35 q-31 -162 -82 -207 q-26 -20 -56 -20 q-32 0 -61 20 q-29 22 -50 54 q-34 54 -50 95 q-85 -90 -214 -166 l-53 67 q144 70 240 184 q-30 108 -40 186 q-9 92 -16 266 l-552 0 l0 77 l549 0 q-5 105 -5 145 l83 0 q0 -105 1 -145 l197 0 q-74 64 -140 99 l46 55 ZM29 60 q203 19 495 100 l6 -75 q-222 -70 -487 -109 l-14 84 Z" /><glyph glyph-name="" unicode="&#x4e95;" d="M272 841 l83 0 l0 -193 l303 0 l0 193 l82 0 l0 -193 l210 0 l0 -79 l-210 0 l0 -264 l226 0 l0 -79 l-226 0 l0 -310 l-82 0 l0 310 l-326 0 q-31 -130 -132 -226 q-45 -42 -108 -84 l-57 68 q174 110 211 242 l-207 0 l0 79 l225 0 q8 51 8 105 l0 159 l-216 0 l0 79 l216 0 l0 193 ZM355 413 q0 -42 -8 -108 l311 0 l0 264 l-303 0 l0 -156 Z" /><glyph glyph-name="" unicode="&#x6a2a;" d="M929 435 l0 -344 l-533 0 l0 344 l229 0 l0 69 l-266 0 l0 68 l145 0 l0 105 l-118 0 l0 68 l118 0 l0 97 l75 0 l0 -97 l166 0 l0 97 l74 0 l0 -97 l118 0 l0 -68 l-118 0 l0 -105 l145 0 l0 -68 l-267 0 l0 -69 l232 0 ZM697 374 l0 -77 l159 0 l0 77 l-159 0 ZM697 238 l0 -85 l159 0 l0 85 l-159 0 ZM625 153 l0 85 l-155 0 l0 -85 l155 0 ZM625 297 l0 77 l-155 0 l0 -77 l155 0 ZM745 677 l-166 0 l0 -105 l166 0 l0 105 ZM333 260 q-57 75 -87 160 l0 -505 l-79 0 l0 473 q-42 -144 -113 -246 l-32 106 q106 144 141 323 l-125 0 l0 74 l129 0 l0 197 l79 0 l0 -197 l103 0 l0 -74 l-103 0 l0 -29 q36 -109 129 -214 l-42 -68 ZM934 -88 q-105 37 -213 119 l53 48 q94 -65 200 -101 l-40 -66 ZM330 -23 q116 32 209 102 l56 -47 q-42 -37 -106 -70 q-71 -36 -116 -50 l-43 65 Z" /><glyph glyph-name="" unicode="&#x2ee9;&#x9ec4;" d="M962 524 l-426 0 l0 -70 l332 0 l0 -370 l-736 0 l0 370 l328 0 l0 70 l-422 0 l0 72 l241 0 l0 95 l-202 0 l0 71 l202 0 l0 81 l81 0 l0 -81 l282 0 l0 81 l80 0 l0 -81 l202 0 l0 -71 l-202 0 l0 -95 l240 0 l0 -72 ZM460 389 l-248 0 l0 -85 l248 0 l0 85 ZM789 389 l-253 0 l0 -85 l253 0 l0 85 ZM460 241 l-248 0 l0 -87 l248 0 l0 87 ZM789 241 l-253 0 l0 -87 l253 0 l0 87 ZM642 691 l-282 0 l0 -95 l282 0 l0 95 ZM365 25 q-111 -74 -288 -110 l-40 73 q166 28 277 89 l51 -52 ZM690 76 q119 -52 273 -78 l-41 -78 q-146 34 -288 103 l56 53 Z" /><glyph glyph-name="" unicode="&#x5316;" d="M253 -85 l-85 0 l0 541 q-45 -63 -101 -116 l-46 88 q91 84 151 192 q62 108 94 223 l82 -14 q-31 -110 -95 -234 l0 -680 ZM946 592 q-85 -66 -190 -116 q-106 -51 -194 -78 l0 -338 q0 -29 8 -36 q6 -8 36 -8 l220 0 q23 0 31 7 q23 18 23 175 l86 -21 q0 -191 -54 -227 q-19 -14 -29 -14 q-7 -2 -33 -2 l-276 0 q-68 0 -87 37 q-9 18 -9 46 l0 827 l84 0 l0 -362 q195 67 328 178 l56 -68 Z" /><glyph glyph-name="" unicode="&#x4f55;" d="M691 167 l-370 0 l0 444 l370 0 l0 -444 ZM614 540 l-214 0 l0 -301 l214 0 l0 301 ZM211 -84 l-81 0 l0 512 q-31 -52 -69 -95 l-40 89 q125 161 172 429 l83 -12 q-24 -124 -65 -235 l0 -688 ZM963 733 l-78 0 l0 -726 q0 -49 -21 -70 q-21 -21 -69 -21 l-162 0 l-14 86 l156 0 q16 0 22 6 q6 5 6 25 l0 700 l-504 0 l0 78 l664 0 l0 -78 Z" /><glyph glyph-name="" unicode="&#x52a0;" d="M207 843 l81 0 l0 -176 l202 0 q0 -530 -22 -628 q-17 -69 -44 -93 q-29 -26 -82 -26 l-97 0 l-14 85 l106 -1 q30 0 43 37 q17 53 20 147 q4 65 9 399 l-121 0 q0 -134 -17 -251 q-16 -112 -38 -178 q-22 -68 -55 -123 q-34 -56 -52 -77 l-45 -44 l-61 69 q28 25 42 40 q16 18 47 67 q30 50 49 107 q19 55 34 154 q15 98 15 215 l0 21 l-168 0 l0 80 l168 0 l0 176 ZM926 782 l0 -866 l-79 0 l0 80 l-196 0 l0 -80 l-79 0 l0 866 l354 0 ZM847 703 l-196 0 l0 -627 l196 0 l0 627 Z" /><glyph glyph-name="" unicode="&#x53ef;" d="M831 4 q0 -46 -22 -67 q-22 -21 -75 -21 l-192 0 l-15 86 l189 -1 q15 0 24 7 q7 8 7 28 l0 689 l-711 0 l0 82 l926 0 l0 -82 l-131 0 l0 -721 ZM584 173 l-378 0 l0 -59 l-80 0 l0 492 l458 0 l0 -433 ZM502 531 l-296 0 l0 -284 l296 0 l0 284 Z" /><glyph glyph-name="" unicode="&#x5bb6;" d="M928 461 q-72 -74 -205 -150 q88 -163 240 -274 l-61 -69 q-105 92 -180 204 q-75 115 -106 200 q-31 86 -48 173 l-33 0 q-25 -31 -63 -63 q25 -24 41 -44 q17 -21 45 -66 q58 -97 58 -256 q0 -196 -127 -196 l-140 0 l-16 82 l131 -1 q12 0 24 2 q10 2 23 12 q28 19 28 106 q0 44 -7 79 q-176 -155 -467 -228 l-33 77 q310 63 487 223 q-12 41 -26 68 q-140 -125 -395 -190 l-35 74 q244 50 397 167 q-15 19 -46 50 q-134 -90 -322 -127 l-33 75 q247 39 383 156 l-263 0 l0 66 l642 0 l0 -66 l-184 0 q18 -84 54 -168 q102 61 172 135 l65 -51 ZM459 760 l0 81 l84 0 l0 -81 l393 0 l0 -208 l-79 0 l0 136 l-711 0 l0 -136 l-80 0 l0 208 l393 0 Z" /><glyph glyph-name="" unicode="&#x79d1;" d="M962 319 l10 -79 l-106 -23 l0 -300 l-82 0 l0 283 l-350 -73 l-10 79 l360 76 l0 561 l82 0 l0 -544 l96 20 ZM294 580 l133 0 l0 -75 l-133 0 l0 -13 q50 -89 139 -181 l-47 -71 q-56 72 -92 145 l0 -468 l-79 0 l0 459 q-55 -135 -159 -254 l-35 87 q59 55 111 145 q53 89 76 151 l-169 0 l0 75 l176 0 l0 148 q-87 -10 -164 -12 l-17 74 q219 4 357 53 l37 -74 q-92 -23 -134 -29 l0 -160 ZM683 592 q-78 84 -170 145 l46 59 q56 -34 97 -66 q40 -32 82 -75 l-55 -63 ZM637 348 q-66 74 -171 140 l49 61 q104 -61 178 -138 l-56 -63 Z" /><glyph glyph-name="" unicode="&#x679c;" d="M930 -62 q-111 48 -195 102 q-82 54 -123 92 q-40 41 -72 82 l0 -299 l-81 0 l0 305 q-44 -62 -125 -129 q-90 -75 -265 -152 l-42 77 q251 86 373 238 l-364 0 l0 75 l423 0 l0 82 l-342 0 l0 405 l767 0 l0 -405 l-344 0 l0 -82 l424 0 l0 -75 l-370 0 q88 -97 178 -147 q91 -51 202 -87 l-44 -82 ZM459 746 l-260 0 l0 -98 l260 0 l0 98 ZM459 583 l-260 0 l0 -103 l260 0 l0 103 ZM802 746 l-262 0 l0 -98 l262 0 l0 98 ZM802 583 l-262 0 l0 -103 l262 0 l0 103 Z" /><glyph glyph-name="" unicode="&#x67b6;" d="M930 426 l-363 0 l0 373 l363 0 l0 -373 ZM854 730 l-211 0 l0 -235 l211 0 l0 235 ZM38 253 l0 74 l422 0 l0 93 l80 0 l0 -93 l422 0 l0 -74 l-366 0 q56 -63 157 -130 q95 -63 208 -103 l-47 -72 q-109 43 -209 118 q-97 70 -165 150 l0 -298 l-80 0 l0 304 q-139 -169 -381 -275 l-44 77 q223 76 364 229 l-361 0 ZM486 764 q0 -91 -8 -184 q-9 -85 -20 -114 q-22 -52 -85 -52 l-91 0 l-16 81 l90 -3 q18 -2 24 6 q7 6 12 23 q16 60 18 173 l-127 0 q-18 -100 -66 -171 q-49 -72 -158 -136 l-43 68 q95 50 136 107 q41 56 55 132 l-163 0 l0 70 l172 0 q3 35 3 79 l79 0 q-2 -55 -5 -79 l193 0 Z" /><glyph glyph-name="" unicode="&#x6b4c;" d="M73 478 l0 219 l274 0 l0 -217 l37 0 q16 0 24 5 q6 5 6 24 l0 239 l-376 0 l0 68 l514 0 l0 -68 l-65 0 l0 -270 q0 -75 -69 -75 l-102 0 l-12 75 l-231 0 ZM552 381 l0 -68 l-65 0 l0 -326 q0 -71 -75 -71 l-118 0 l-15 81 l101 -1 q21 0 28 5 q6 5 6 25 l0 287 l-376 0 l0 68 l514 0 ZM347 17 l-205 0 l0 -60 l-69 0 l0 301 l274 0 l0 -241 ZM279 637 l-137 0 l0 -99 l137 0 l0 99 ZM279 199 l-137 0 l0 -122 l137 0 l0 122 ZM507 480 q102 149 134 367 l82 -11 q-14 -72 -36 -152 l272 0 l0 -75 q-25 -122 -85 -233 l-70 35 q54 94 78 196 l-220 0 q-39 -107 -88 -175 l-67 48 ZM487 -15 q92 71 132 164 q68 162 68 289 l0 115 l79 0 l0 -113 q0 -127 54 -250 q57 -123 151 -204 l-56 -70 q-102 100 -142 200 q-27 64 -43 133 q-42 -199 -198 -333 l-45 69 Z" /><glyph glyph-name="" unicode="&#x6cb3;" d="M696 166 l-348 0 l0 444 l348 0 l0 -444 ZM617 535 l-190 0 l0 -295 l190 0 l0 295 ZM961 730 l-76 0 l0 -729 q0 -41 -16 -63 q-16 -22 -66 -22 l-165 0 l-14 84 l151 -1 q16 0 21 4 q6 5 6 20 l0 707 l-493 0 l0 78 l652 0 l0 -78 ZM241 664 q-63 56 -168 109 l46 67 q98 -43 174 -105 l-52 -71 ZM189 401 q-64 62 -162 105 l43 71 q89 -34 167 -103 l-48 -73 ZM24 -4 q109 122 193 331 l68 -48 q-94 -228 -204 -360 l-57 77 Z" /><glyph glyph-name="" unicode="&#x2f55;&#x706b;" d="M143 698 q74 -106 148 -301 l-85 -30 q-25 77 -62 155 q-38 85 -77 141 l76 35 ZM938 672 q-68 -192 -151 -309 l-73 41 q89 146 135 300 l89 -32 ZM541 843 l0 -237 q0 -101 37 -206 q35 -106 98 -187 q103 -136 294 -208 l-55 -82 q-52 25 -63 31 q-29 15 -89 58 q-63 45 -105 92 q-43 46 -91 128 q-46 80 -67 174 q-19 -93 -66 -176 q-47 -82 -92 -130 q-49 -51 -108 -90 q-54 -39 -90 -58 l-64 -29 l-50 82 q200 80 290 201 q73 97 102 203 q32 105 32 200 l0 234 l87 0 Z" /><glyph glyph-name="" unicode="&#x82b1;" d="M352 568 q-33 -76 -78 -147 l0 -504 l-81 0 l0 393 q-56 -68 -121 -121 l-44 71 q168 135 253 342 l9 -4 l0 81 l-251 0 l0 78 l251 0 l0 85 l82 0 l0 -85 l260 0 l0 85 l81 0 l0 -85 l248 0 l0 -78 l-248 0 l0 -91 l-81 0 l0 91 l-260 0 l0 -85 l-74 0 l54 -26 ZM592 575 l0 -233 q167 77 270 179 l60 -63 q-57 -51 -118 -90 q-55 -35 -212 -115 l0 -216 q0 -27 29 -27 l209 0 q29 0 36 30 q9 33 14 140 l81 -22 q-10 -145 -30 -186 q-20 -40 -86 -40 l-252 0 q-83 0 -83 74 l0 569 l82 0 Z" /><glyph glyph-name="" unicode="&#x8377;" d="M283 768 l0 75 l82 0 l0 -75 l266 0 l0 75 l82 0 l0 -75 l250 0 l0 -76 l-250 0 l0 -77 l-82 0 l0 77 l-266 0 l0 -77 l-82 0 l0 77 l-245 0 l0 76 l245 0 ZM963 503 l-93 0 l0 -501 q0 -39 -18 -62 q-20 -23 -71 -23 l-119 0 l-17 81 l112 -1 q19 0 25 7 q7 6 7 28 l0 471 l-470 0 l0 74 l644 0 l0 -74 ZM691 88 l-350 0 l0 330 l350 0 l0 -330 ZM615 346 l-199 0 l0 -188 l199 0 l0 188 ZM25 310 q136 123 201 308 l74 -31 q-27 -73 -69 -147 l0 -523 l-79 0 l0 404 q-39 -49 -87 -91 l-40 80 Z" /><glyph glyph-name="" unicode="&#x753b;" d="M963 735 l-423 0 l0 -100 l222 0 l0 -506 l-520 0 l0 506 l221 0 l0 100 l-425 0 l0 75 l925 0 l0 -75 ZM685 567 l-145 0 l0 -145 l145 0 l0 145 ZM685 356 l-145 0 l0 -159 l145 0 l0 159 ZM463 567 l-145 0 l0 -145 l145 0 l0 145 ZM463 356 l-145 0 l0 -159 l145 0 l0 159 ZM160 645 l0 -605 l684 0 l0 605 l81 0 l0 -729 l-81 0 l0 50 l-684 0 l0 -50 l-81 0 l0 729 l81 0 Z" /><glyph glyph-name="" unicode="&#x4ecb;" d="M22 519 q133 49 248 133 q116 86 192 193 l78 0 q147 -211 438 -322 l-47 -85 q-122 52 -239 136 q-117 88 -194 191 q-141 -197 -430 -324 l-46 78 ZM347 306 q0 -275 -213 -394 l-62 67 l50 31 q22 16 48 42 q32 29 50 62 q17 31 32 83 q14 54 14 114 l0 185 l81 0 l0 -190 ZM732 -86 l-85 0 l0 582 l85 0 l0 -582 Z" /><glyph glyph-name="" unicode="&#x4f1a;" d="M677 255 q80 -79 137 -145 q61 -78 108 -152 l-72 -48 q-21 35 -49 77 q-121 -17 -357 -29 q-231 -13 -372 -13 l-9 82 l138 0 q71 122 123 259 l-274 0 l0 77 l893 0 l0 -77 l-522 0 q-57 -128 -129 -257 l79 2 q173 5 378 24 q-54 71 -138 155 l66 45 ZM765 492 l-529 0 l0 56 q-97 -59 -178 -93 l-41 81 q103 40 188 92 q84 50 135 99 l74 75 q25 30 40 53 l89 0 q78 -105 193 -191 q113 -84 244 -131 l-44 -80 q-93 42 -171 94 l0 -55 ZM733 568 q-142 101 -234 216 q-80 -110 -232 -216 l466 0 Z" /><glyph glyph-name="" unicode="&#x89e3;" d="M426 776 l0 -64 q-20 -40 -61 -94 l119 0 l0 -629 q0 -31 -16 -48 q-15 -18 -29 -21 q-12 -4 -27 -4 l-116 0 l-16 79 l97 -1 q36 0 36 25 l0 140 l-256 0 q-20 -167 -74 -243 l-62 58 q68 104 68 280 l0 313 q-10 -10 -40 -36 l-34 74 q52 43 89 98 q40 56 56 89 q18 41 22 55 l78 -14 q-10 -28 -24 -57 l190 0 ZM253 552 l-92 0 l0 -131 l92 0 l0 131 ZM253 357 l-92 0 l0 -133 l92 0 l0 133 ZM413 552 l-96 0 l0 -131 l96 0 l0 131 ZM413 357 l-96 0 l0 -133 l96 0 l0 133 ZM200 710 q-29 -47 -64 -92 l140 0 q45 53 61 92 l-137 0 ZM726 520 l-19 75 l99 -1 q20 0 30 7 q23 16 28 136 l-155 0 q-21 -81 -59 -136 q-36 -52 -112 -94 l-42 69 q53 27 88 62 q32 37 44 99 l-132 0 l0 71 l446 0 q-3 -129 -13 -187 q-10 -61 -30 -81 q-20 -20 -60 -20 l-113 0 ZM723 400 l0 94 l76 0 l0 -94 l140 0 l0 -70 l-140 0 l0 -130 l162 0 l0 -75 l-162 0 l0 -209 l-73 0 l0 209 l-211 0 l0 75 l208 0 l0 130 l-107 0 q-22 -56 -48 -94 l-63 46 q53 80 80 223 l74 -15 q-9 -52 -21 -90 l85 0 Z" /><glyph glyph-name="" unicode="&#x56de;" d="M722 592 l0 -410 l-447 0 l0 410 l447 0 ZM353 519 l0 -264 l289 0 l0 264 l-289 0 ZM164 -83 l-82 0 l0 879 l836 0 l0 -879 l-82 0 l0 59 l-672 0 l0 -59 ZM164 54 l672 0 l0 664 l-672 0 l0 -664 Z" /><glyph glyph-name="" unicode="&#x5feb;" d="M296 317 l0 73 l268 0 q4 49 4 96 l0 135 l-208 0 l0 73 l208 0 l0 148 l80 0 l0 -148 l248 0 l0 -304 l66 0 l0 -73 l-294 0 q33 -104 103 -183 q70 -77 204 -139 l-42 -77 q-140 71 -209 150 q-71 82 -105 179 q-64 -220 -302 -329 l-44 72 q67 30 115 66 q48 35 78 68 q24 27 48 71 q22 48 26 64 q7 20 14 58 l-258 0 ZM244 842 l0 -924 l-82 0 l0 924 l82 0 ZM648 621 l0 -138 q0 -55 -3 -93 l175 0 l0 231 l-172 0 ZM16 376 q30 90 34 266 l71 -3 q-1 -193 -37 -296 l-68 33 ZM315 449 q-12 68 -45 146 q-11 28 -14 32 l60 25 q45 -85 68 -176 l-69 -27 Z" /><glyph glyph-name="" unicode="&#x6539;" d="M961 688 l0 -80 l-70 0 q-19 -273 -129 -443 q79 -93 217 -173 l-52 -75 q-129 78 -216 179 q-91 -106 -246 -183 l-52 75 q58 26 73 32 q37 21 81 52 q56 42 94 88 q-91 136 -126 292 q-19 -29 -61 -75 l-64 53 l0 -6 l-260 0 l0 -326 q0 -35 33 -35 l110 0 q25 0 31 7 q8 6 14 32 q7 25 13 112 l81 -17 q-9 -130 -28 -167 q-25 -46 -83 -46 l-177 0 q-35 0 -55 20 q-19 19 -19 47 l0 450 l258 0 l0 230 l-290 0 l0 78 l372 0 l0 -373 q75 65 122 178 q49 107 68 238 l84 -11 q-13 -76 -36 -153 l313 0 ZM619 608 q-15 -38 -32 -68 q43 -190 124 -309 q81 152 101 377 l-193 0 Z" /><glyph glyph-name="" unicode="&#x754c;" d="M705 -84 l-85 0 l0 400 l65 0 q-45 38 -99 104 l-169 0 q-36 -53 -102 -107 l74 0 q0 -62 -5 -96 q-3 -39 -20 -90 q-15 -49 -42 -85 q-26 -36 -76 -72 q-54 -37 -118 -58 l-50 76 q115 35 168 94 q44 48 54 136 q4 31 4 86 q-102 -75 -242 -126 l-38 76 q100 30 168 66 q67 38 126 100 l-207 0 l0 396 l778 0 l0 -396 l-203 0 q99 -111 293 -165 l-40 -76 q-138 44 -234 120 l0 -383 ZM460 748 l-268 0 l0 -96 l268 0 l0 96 ZM460 588 l-268 0 l0 -100 l268 0 l0 100 ZM808 748 l-272 0 l0 -96 l272 0 l0 96 ZM808 588 l-272 0 l0 -100 l272 0 l0 100 Z" /><glyph glyph-name="" unicode="&#x5916;" d="M16 411 q89 92 137 196 q45 97 68 237 l81 -4 q-15 -85 -27 -126 l288 0 q-22 -272 -132 -463 q-108 -189 -337 -343 l-60 70 q197 116 307 280 q-73 101 -183 195 q-31 -46 -84 -102 l-58 60 ZM250 637 q-23 -61 -53 -119 q99 -79 187 -187 q66 134 90 306 l-224 0 ZM948 178 q-82 40 -147 86 l0 -348 l-86 0 l0 417 q-102 94 -163 197 l62 46 q48 -79 101 -132 l0 401 l86 0 l0 -477 q84 -62 176 -100 l-29 -90 Z" /><glyph glyph-name="" unicode="&#x8857;" d="M20 356 q58 50 103 126 q49 80 73 150 l70 -32 q-20 -57 -58 -129 l0 -555 l-80 0 l0 429 q-34 -46 -79 -85 l-29 96 ZM683 33 q-246 -43 -425 -57 l-11 76 q18 0 181 14 l0 166 l-158 0 l0 76 l158 0 l0 128 l-170 0 l0 76 l170 0 l0 137 l-147 0 l0 76 l147 0 l0 120 l80 0 l0 -120 l143 0 l0 -76 l-143 0 l0 -137 l163 0 l0 -76 l-163 0 l0 -128 l149 0 l0 -76 l-149 0 l0 -156 q113 15 171 29 l4 -72 ZM246 819 q-70 -147 -187 -228 l-38 77 q93 60 150 183 l75 -32 ZM946 728 l-241 0 l0 76 l241 0 l0 -76 ZM962 459 l-78 0 l0 -457 q0 -64 -36 -78 q-15 -7 -44 -7 l-110 0 l-15 84 l98 -1 q18 0 23 8 q4 8 4 21 l0 430 l-107 0 l0 81 l265 0 l0 -81 Z" /><glyph glyph-name="" unicode="&#x5404;" d="M949 334 q-258 36 -448 126 q-204 -84 -450 -127 l-30 80 q216 32 389 95 q-98 60 -164 130 q-86 -53 -182 -91 l-40 71 q132 50 204 103 q74 55 128 130 l93 -12 q-28 -42 -43 -60 l425 0 l0 -72 q-28 -37 -43 -53 q-19 -22 -73 -67 q-52 -43 -120 -82 q164 -62 382 -89 l-28 -82 ZM334 705 l-26 -22 q89 -80 196 -136 q133 63 219 158 l-389 0 ZM850 -85 l-85 0 l0 50 l-531 0 l0 -50 l-84 0 l0 407 l700 0 l0 -407 ZM765 248 l-531 0 l0 -208 l531 0 l0 208 Z" /><glyph glyph-name="" unicode="&#x683c;" d="M916 693 q-57 -104 -163 -195 q104 -61 226 -98 l-38 -75 q-127 42 -251 125 q-118 -84 -272 -136 l-38 69 q135 37 248 114 q-76 62 -116 123 q-42 -39 -82 -66 l-46 66 q68 41 111 91 q45 53 82 131 l83 -14 q-15 -35 -35 -67 l291 0 l0 -68 ZM359 224 q-56 81 -86 154 l0 -460 l-81 0 l0 494 q-52 -150 -140 -275 l-33 94 q111 143 170 342 l-153 0 l0 75 l156 0 l0 194 l81 0 l0 -194 l102 0 l0 -75 l-102 0 l0 -63 q45 -122 131 -226 l-45 -60 ZM905 -82 l-79 0 l0 44 l-287 0 l0 -44 l-78 0 l0 385 l444 0 l0 -385 ZM575 691 l-14 -16 q50 -76 127 -133 q92 72 134 149 l-247 0 ZM826 231 l-287 0 l0 -195 l287 0 l0 195 Z" /><glyph glyph-name="" unicode="&#x6838;" d="M863 561 q-69 -133 -191 -251 q-126 -121 -271 -193 l-46 68 q128 63 219 139 q-69 87 -176 169 l51 55 q24 -14 55 -41 q68 80 102 147 l-202 0 l0 77 l235 0 l0 113 l81 0 l0 -113 l244 0 l0 -77 l-260 0 q-46 -85 -145 -198 q52 -51 74 -80 q103 103 157 220 l73 -35 ZM385 -8 q155 53 283 164 q128 109 196 246 l70 -36 q-55 -108 -137 -195 q76 -107 177 -196 l-59 -58 q-99 83 -171 201 q-158 -144 -319 -198 l-40 72 ZM371 248 q-57 71 -92 154 l0 -485 l-80 0 l0 502 q-49 -151 -144 -285 l-31 95 q113 139 170 347 l-156 0 l0 75 l161 0 l0 193 l80 0 l0 -193 l125 0 l0 -75 l-125 0 l0 -62 q16 -41 56 -101 q42 -62 79 -97 l-43 -68 Z" /><glyph glyph-name="" unicode="&#x2f93;&#x89d2;" d="M764 782 l0 -70 q-45 -59 -95 -109 l240 0 l0 -612 q0 -36 -17 -55 q-18 -18 -58 -18 l-210 0 l-15 82 l190 -1 q28 0 28 27 l0 135 l-616 0 q-18 -100 -45 -152 q-28 -52 -66 -93 l-70 58 q22 19 41 42 q15 19 34 60 q37 78 37 241 l0 252 q-38 -20 -71 -31 l-42 69 q212 78 320 243 l93 -13 q-18 -31 -37 -55 l359 0 ZM480 531 l-258 0 l0 -115 l258 0 l0 115 ZM222 312 q0 -41 -2 -79 l260 0 l0 117 l-258 0 l0 -38 ZM555 233 l272 0 l0 117 l-272 0 l0 -117 ZM827 531 l-272 0 l0 -115 l272 0 l0 115 ZM343 713 q-63 -61 -141 -110 l356 0 q43 37 98 110 l-313 0 Z" /><glyph glyph-name="" unicode="&#x8d6b;" d="M589 396 q-26 -204 -99 -322 l-56 49 q20 30 36 63 l-65 -13 q-2 115 -23 221 l63 10 q24 -100 28 -210 q38 84 53 212 l63 -10 ZM299 843 l0 -107 l155 0 l0 -72 l-155 0 l0 -128 l175 0 l0 -72 l-124 0 l0 -479 q0 -51 -31 -63 q-15 -7 -41 -7 l-101 0 l-11 79 l87 -1 q21 0 25 7 q6 8 6 20 l0 444 l-48 0 q-3 -221 -32 -339 q-30 -116 -112 -210 l-58 51 q80 89 107 191 q28 104 29 307 l-132 0 l0 72 l184 0 l0 128 l-159 0 l0 72 l159 0 l0 107 l77 0 ZM927 405 q10 -217 43 -318 l-63 -47 q-37 120 -46 360 l66 5 ZM772 843 l0 -107 l163 0 l0 -72 l-163 0 l0 -128 l190 0 l0 -72 l-137 0 l0 -471 q0 -78 -76 -78 l-106 0 l-15 79 l98 -1 q24 0 27 14 q1 3 1 15 l0 442 l-48 0 q-3 -150 -28 -260 q-27 -109 -64 -169 q-38 -62 -103 -124 l-58 50 l47 43 q15 15 47 62 q26 42 47 94 q45 121 46 304 l-123 0 l0 72 l176 0 l0 128 l-158 0 l0 72 l158 0 l0 107 l79 0 ZM22 160 q43 102 47 244 l62 -6 q-7 -187 -57 -291 l-52 53 Z" /><glyph glyph-name="" unicode="&#x9694;" d="M930 10 q0 -93 -86 -93 l-102 0 l-15 77 l88 -1 q22 0 31 9 q8 11 8 33 l0 183 l-109 0 q-56 0 -69 31 q-6 15 -6 38 l0 69 l-65 0 q-12 -76 -55 -110 q-34 -28 -82 -43 l-24 51 q86 29 98 102 l-107 0 l0 -439 l-76 0 l0 504 l571 0 l0 -411 ZM854 356 l-119 0 l0 -44 q0 -15 1 -20 q2 -7 8 -14 q8 -6 20 -6 l90 0 l0 84 ZM821 105 l-140 0 l0 -180 l-73 0 l0 180 l-139 0 l0 63 l352 0 l0 -63 ZM962 744 l-602 0 l0 70 l602 0 l0 -70 ZM334 814 l0 -69 q-30 -108 -88 -242 q85 -118 85 -243 q0 -83 -29 -112 q-31 -29 -81 -29 l-49 0 l-13 80 l39 -1 q40 0 50 34 q6 18 6 46 q0 103 -86 221 q26 47 54 129 q29 83 33 116 l-114 0 l0 -825 l-78 0 l0 895 l271 0 ZM891 480 l-490 0 l0 208 l490 0 l0 -208 ZM814 625 l-336 0 l0 -82 l336 0 l0 82 Z" /><glyph glyph-name="" unicode="&#x2fb0;&#x9769;" d="M961 692 l-211 0 l0 -150 l-210 0 l0 -67 l350 0 l0 -253 l-350 0 l0 -78 l424 0 l0 -74 l-424 0 l0 -154 l-79 0 l0 154 l-425 0 l0 74 l425 0 l0 78 l-348 0 l0 253 l348 0 l0 67 l-207 0 l0 150 l-213 0 l0 74 l213 0 l0 78 l79 0 l0 -78 l338 0 l0 78 l79 0 l0 -78 l211 0 l0 -74 ZM461 408 l-268 0 l0 -120 l268 0 l0 120 ZM809 408 l-269 0 l0 -120 l269 0 l0 120 ZM671 692 l-338 0 l0 -86 l338 0 l0 86 Z" /><glyph glyph-name="" unicode="&#x62ec;" d="M703 576 l261 0 l0 -75 l-261 0 l0 -157 l216 0 l0 -426 l-78 0 l0 56 l-355 0 l0 -56 l-79 0 l0 426 l213 0 l0 157 l-259 0 l0 75 l259 0 l0 142 q-118 -9 -238 -10 l-17 75 q150 -1 302 17 q149 20 236 48 l30 -77 q-108 -31 -230 -44 l0 -151 ZM841 270 l-355 0 l0 -221 l355 0 l0 221 ZM371 346 l-119 -51 l0 -302 q0 -75 -79 -75 l-114 0 l-11 83 l97 -1 q25 0 25 22 l0 242 q-71 -26 -129 -43 l-15 82 q61 15 144 44 l0 240 l-134 0 l0 74 l134 0 l0 181 l82 0 l0 -181 l109 0 l0 -74 l-109 0 l0 -211 q65 24 109 45 l10 -75 Z" /><glyph glyph-name="" unicode="&#x6d3b;" d="M676 577 l285 0 l0 -75 l-285 0 l0 -160 l238 0 l0 -426 l-80 0 l0 54 l-395 0 l0 -54 l-82 0 l0 426 l236 0 l0 160 l-286 0 l0 75 l286 0 l0 143 q-110 -8 -252 -8 l-14 77 q354 -4 566 58 l29 -74 q-118 -33 -246 -45 l0 -151 ZM833 267 l-394 0 l0 -223 l394 0 l0 223 ZM242 666 q-66 57 -170 110 l45 66 q86 -34 174 -106 l-49 -70 ZM194 397 q-78 67 -164 109 l42 69 q95 -37 171 -107 l-49 -71 ZM31 3 q40 47 86 123 q66 111 103 200 l65 -48 q-39 -99 -97 -202 q-56 -100 -106 -153 l-51 80 Z" /><glyph glyph-name="" unicode="&#x6ed1;" d="M375 -84 l0 499 l484 0 l0 -421 q0 -78 -85 -78 l-143 0 l-15 81 l127 -2 q23 0 31 7 q7 7 7 18 l0 67 l-327 0 l0 -171 l-79 0 ZM873 810 l0 -261 l81 0 l0 -215 l-78 0 l0 148 l-518 0 l0 -148 l-78 0 l0 215 l78 0 l0 261 l515 0 ZM781 352 l-327 0 l0 -72 l327 0 l0 72 ZM781 220 l-327 0 l0 -73 l327 0 l0 73 ZM793 742 l-355 0 l0 -193 l103 0 l0 127 l252 0 l0 66 ZM793 624 l-176 0 l0 -75 l176 0 l0 75 ZM239 662 q-60 55 -171 110 l46 68 q93 -41 175 -104 l-50 -74 ZM188 398 q-87 72 -167 108 l43 70 q96 -45 174 -104 l-50 -74 ZM18 -7 q117 139 196 338 l70 -56 q-88 -219 -207 -357 l-59 75 Z" /><glyph glyph-name="" unicode="&#x51a0;" d="M960 456 l-128 0 l0 -295 q0 -47 -18 -67 q-18 -21 -63 -21 l-131 0 l-18 81 l124 -1 q16 0 20 7 q5 7 5 20 l0 276 l-241 0 l0 77 l240 0 l0 122 l82 0 l0 -122 l128 0 l0 -77 ZM456 625 l0 -74 l-322 0 l0 43 l-71 0 l0 210 l874 0 l0 -213 l-80 0 l0 135 l-713 0 l0 -101 l312 0 ZM510 438 l0 -75 l-88 0 l0 -301 q0 -25 9 -36 q9 -10 33 -10 l360 0 q36 0 43 22 q8 24 11 78 q4 51 4 59 l78 -14 q-6 -116 -14 -140 q-10 -26 -18 -40 q-7 -16 -20 -24 q-31 -18 -68 -18 l-406 0 q-49 0 -72 25 q-21 27 -21 64 l0 335 l-95 0 q-4 -168 -41 -264 q-36 -96 -133 -173 l-46 74 q82 66 109 142 q27 75 33 221 l-130 0 l0 75 l472 0 ZM611 218 q-38 78 -91 135 l61 41 q62 -64 96 -132 l-66 -44 Z" /><glyph glyph-name="" unicode="&#x520a;" d="M540 803 l0 -79 l-196 0 l0 -277 l215 0 l0 -79 l-215 0 l0 -450 l-82 0 l0 450 l-224 0 l0 79 l224 0 l0 277 l-199 0 l0 79 l477 0 ZM687 769 l0 -623 l-82 0 l0 623 l82 0 ZM921 844 l0 -845 q0 -57 -40 -73 q-21 -8 -50 -8 l-163 0 l-14 86 l156 -1 q16 0 22 6 q5 7 5 22 l0 813 l84 0 Z" /><glyph glyph-name="" unicode="&#x5b98;" d="M820 333 l-561 0 l0 -83 l629 0 l0 -335 l-83 0 l0 57 l-546 0 l0 -57 l-83 0 l0 690 l644 0 l0 -272 ZM542 843 l0 -83 l405 0 l0 -218 l-84 0 l0 141 l-725 0 l0 -141 l-85 0 l0 218 l403 0 l0 83 l86 0 ZM739 535 l-480 0 l0 -131 l480 0 l0 131 ZM805 180 l-546 0 l0 -138 l546 0 l0 138 Z" /><glyph glyph-name="" unicode="&#x2f32;&#x5e72;" d="M907 726 l-365 0 l0 -274 l421 0 l0 -82 l-421 0 l0 -449 l-86 0 l0 449 l-420 0 l0 82 l420 0 l0 274 l-364 0 l0 81 l815 0 l0 -81 Z" /><glyph glyph-name="" unicode="&#x611f;" d="M747 848 q80 -20 152 -60 l-27 -42 l91 0 l0 -70 l-289 0 q19 -128 52 -206 q49 70 81 163 l76 -24 q-48 -129 -115 -216 q56 -83 85 -83 q25 0 35 42 q8 29 15 86 l73 -34 q-15 -88 -38 -136 q-24 -48 -70 -48 q-70 0 -151 114 q-54 -56 -138 -109 l-56 59 l-298 0 l0 215 l320 0 l0 -193 q73 45 128 100 q-57 109 -79 270 l-421 0 l0 -158 q0 -202 -78 -318 l-75 53 q54 70 68 173 q6 53 6 120 l0 200 l491 0 q-4 45 -5 96 l82 0 q1 -61 5 -96 l163 0 q-49 25 -118 47 l35 55 ZM475 440 l-179 0 l0 -98 l179 0 l0 98 ZM566 619 l0 -62 l-359 0 l0 62 l359 0 ZM220 162 q-41 -145 -125 -227 l-71 55 q46 40 72 83 q27 42 48 108 l76 -19 ZM361 159 l0 -132 q0 -19 25 -19 l205 0 q27 0 37 22 q10 20 22 88 l79 -20 q-17 -102 -39 -134 q-21 -33 -74 -33 l-261 0 q-75 0 -75 63 l0 165 l81 0 ZM798 214 q99 -88 173 -213 l-75 -50 q-55 107 -161 219 l63 44 ZM432 262 q72 -35 153 -107 l-48 -62 q-19 20 -68 59 q-41 31 -85 54 l48 56 Z" /><glyph glyph-name="" unicode="&#x6562;" d="M30 92 q30 2 64 8 l0 463 l-55 0 l0 72 l203 0 l0 104 l-178 0 l0 72 l438 0 l0 -72 l-181 0 l0 -104 l206 0 l0 -72 l-58 0 l0 -647 l-79 0 l0 162 q-167 -43 -351 -65 l-9 79 ZM390 403 l-218 0 l0 -95 l218 0 l0 95 ZM172 111 q199 35 218 39 l0 95 l-218 0 l0 -134 ZM390 563 l-218 0 l0 -96 l218 0 l0 96 ZM961 684 l0 -78 l-47 0 q-19 -284 -119 -441 q70 -94 179 -170 l-47 -79 q-111 82 -182 180 q-89 -103 -212 -177 l-44 75 q135 81 209 173 q-72 127 -97 271 q-24 -40 -45 -69 l-64 57 q126 170 163 423 l79 -12 q-13 -81 -33 -153 l260 0 ZM677 606 l-20 -53 q14 -179 90 -314 q65 116 90 367 l-160 0 Z" /><glyph glyph-name="" unicode="&#x2f62;&#x7518;" d="M961 600 l-161 0 l0 -683 l-85 0 l0 64 l-432 0 l0 -64 l-84 0 l0 683 l-161 0 l0 81 l161 0 l0 162 l84 0 l0 -162 l432 0 l0 162 l85 0 l0 -162 l161 0 l0 -81 ZM715 600 l-432 0 l0 -221 l432 0 l0 221 ZM715 302 l-432 0 l0 -242 l432 0 l0 242 Z" /><glyph glyph-name="" unicode="&#x770b;" d="M123 728 l-16 71 q74 -2 163 -2 q98 0 287 11 q180 12 291 36 l30 -66 q-162 -29 -363 -41 q-7 -36 -15 -70 l397 0 l0 -63 l-415 0 l-27 -69 l506 0 l0 -67 l-539 0 q-21 -35 -40 -64 l482 0 l0 -487 l-80 0 l0 36 l-464 0 l0 -36 l-80 0 l0 327 q-77 -66 -171 -115 l-43 73 q148 70 238 175 q28 32 40 49 l27 42 l-294 0 l0 67 l330 0 q18 37 28 69 l-294 0 l0 63 l314 0 q12 46 15 68 l-307 -7 ZM784 215 l-464 0 l0 -66 l464 0 l0 66 ZM334 340 l-14 -17 l0 -48 l464 0 l0 65 l-450 0 ZM784 88 l-464 0 l0 -71 l464 0 l0 71 Z" /><glyph glyph-name="" unicode="&#x7ba1;" d="M819 438 l0 -199 l-565 0 l0 -67 l635 0 l0 -255 l-79 0 l0 41 l-556 0 l0 -41 l-80 0 l0 521 l645 0 ZM537 612 l0 -53 l406 0 l0 -186 l-78 0 l0 119 l-731 0 l0 -119 l-77 0 l0 186 l402 0 l0 53 l49 0 l-56 40 q96 87 134 197 l77 -13 q-12 -35 -24 -61 l321 0 l0 -71 l-211 0 q23 -36 44 -87 l-76 -24 q-21 57 -49 111 l-68 0 q-34 -56 -77 -92 l14 0 ZM254 378 l0 -79 l485 0 l0 79 l-485 0 ZM254 112 l0 -90 l556 0 l0 90 l-556 0 ZM480 775 l0 -71 l-157 0 q21 -40 34 -84 l-77 -24 q-10 45 -39 108 l-46 0 q-57 -79 -112 -118 l-56 56 q57 41 99 99 q43 60 59 109 l80 -15 q-10 -30 -27 -60 l242 0 Z" /><glyph glyph-name="" unicode="&#x542b;" d="M733 595 l-465 0 l0 34 q-94 -48 -212 -81 l-34 77 q131 33 253 95 q124 64 178 127 l93 0 q169 -160 435 -221 l-40 -83 q-106 33 -208 83 l0 -31 ZM668 661 q-86 49 -168 125 q-56 -59 -170 -125 l338 0 ZM873 272 l0 -355 l-83 0 l0 39 l-580 0 l0 -39 l-83 0 l0 355 l321 0 l-22 42 q177 42 320 144 l-642 0 l0 69 l777 0 l0 -69 q-121 -109 -332 -186 l324 0 ZM790 201 l-580 0 l0 -174 l580 0 l0 174 Z" /><glyph glyph-name="" unicode="&#x57fa;" d="M942 705 l-145 0 l0 -312 l164 0 l0 -69 l-197 0 q75 -99 206 -161 l-43 -70 q-170 98 -254 231 l-343 0 q-41 -64 -92 -112 q-52 -50 -88 -73 q-39 -26 -80 -46 l-41 69 q140 63 210 162 l-201 0 l0 69 l168 0 l0 312 l-145 0 l0 70 l145 0 l0 68 l81 0 l0 -68 l428 0 l0 68 l82 0 l0 -68 l145 0 l0 -70 ZM715 583 l-428 0 l0 -61 l428 0 l0 61 ZM715 705 l-428 0 l0 -64 l428 0 l0 64 ZM715 463 l-428 0 l0 -70 l428 0 l0 70 ZM460 23 l0 117 l-219 0 l0 70 l219 0 l0 82 l81 0 l0 -82 l222 0 l0 -70 l-222 0 l0 -117 l384 0 l0 -72 l-850 0 l0 72 l385 0 Z" /><glyph glyph-name="" unicode="&#x5bc4;" d="M823 626 l0 -65 l-239 0 q101 -87 312 -105 l-33 -72 q-247 29 -359 177 l-16 0 q-98 -158 -349 -179 l-27 73 q215 14 288 106 l-226 0 l0 65 l262 0 q13 28 21 73 l-315 0 l0 -125 l-82 0 l0 197 l397 0 l0 73 l84 0 l0 -73 l397 0 l0 -197 l-82 0 l0 125 l-316 0 q-7 -38 -21 -73 l304 0 ZM963 287 l-126 0 l0 -295 q0 -54 -38 -69 q-17 -7 -45 -7 l-152 0 l-11 83 l136 -1 q13 0 21 4 q6 6 6 21 l0 264 l-718 0 l0 73 l927 0 l0 -73 ZM581 4 l-362 0 l0 -41 l-77 0 l0 271 l439 0 l0 -230 ZM506 169 l-287 0 l0 -98 l287 0 l0 98 Z" /><glyph glyph-name="" unicode="&#x673a;" d="M370 245 q-51 66 -90 153 l0 -481 l-80 0 l0 499 q-52 -157 -147 -288 l-31 97 q107 128 173 349 l-158 0 l0 74 l163 0 l0 194 l80 0 l0 -194 l132 0 l0 -74 l-132 0 l0 -58 q56 -123 134 -200 l-44 -71 ZM832 33 q0 -14 4 -19 q6 -4 15 -4 l18 0 q14 0 20 14 q8 28 13 183 l72 -21 q-7 -211 -42 -243 q-13 -13 -42 -13 l-68 0 q-70 0 -70 77 l0 731 l-200 0 l0 -320 q0 -91 -12 -171 q-11 -75 -26 -129 q-16 -50 -39 -94 q-24 -48 -37 -64 l-33 -43 l-65 68 q43 49 68 97 q25 45 44 134 q18 86 18 205 l0 394 l362 0 l0 -782 Z" /><glyph glyph-name="" unicode="&#x65e2;" d="M356 267 q59 -68 125 -200 l-70 -44 l-25 54 q-193 -84 -348 -122 l-19 80 l58 13 l0 761 l354 0 l0 -472 l-276 0 l0 -266 q125 39 197 66 q-31 51 -62 92 l66 38 ZM959 454 l0 -75 l-174 0 l-19 -57 l28 0 l0 -293 q0 -27 21 -27 l38 0 q19 0 23 24 q8 50 12 142 l77 -21 q-8 -134 -24 -179 q-17 -44 -68 -44 l-89 0 q-67 0 -67 79 l0 209 q-101 -194 -263 -299 l-60 66 q232 157 311 400 l-242 0 l0 75 l63 0 l0 279 l-48 0 l0 76 l464 0 l0 -76 l-95 0 q-6 -132 -41 -279 l153 0 ZM354 735 l-199 0 l0 -126 l199 0 l0 126 ZM354 542 l-199 0 l0 -133 l199 0 l0 133 ZM727 454 q32 135 38 279 l-162 0 l0 -279 l124 0 Z" /><glyph glyph-name="" unicode="&#x5b63;" d="M780 352 q-86 -67 -238 -130 l0 -13 l421 0 l0 -74 l-421 0 l0 -135 q0 -43 -21 -63 q-22 -20 -67 -20 l-152 0 l-15 85 l142 -2 q18 0 24 7 q6 8 6 22 l0 106 l-420 0 l0 74 l420 0 l0 67 l44 0 q75 26 143 72 l-434 0 l0 63 q-56 -29 -148 -63 l-35 80 q200 55 345 173 l-330 0 l0 73 l419 0 l0 64 l-341 -6 l-18 75 q494 -9 738 47 l37 -72 q-159 -31 -338 -41 l0 -67 l420 0 l0 -73 l-338 0 q73 -65 159 -111 q85 -41 192 -68 l-38 -76 q-85 29 -156 66 l0 -60 ZM766 420 q-137 75 -225 170 l0 -170 l225 0 ZM463 420 l0 171 q-91 -92 -235 -171 l235 0 Z" /><glyph glyph-name="" unicode="&#x6280;" d="M315 -4 q175 47 291 128 q-78 84 -138 224 l76 30 q57 -127 126 -203 q98 92 150 231 l-400 0 l0 75 l214 0 l0 155 l-246 0 l0 77 l246 0 l0 131 l82 0 l0 -131 l246 0 l0 -77 l-246 0 l0 -155 l194 0 l0 -70 q-63 -177 -182 -290 q91 -70 247 -120 l-48 -85 q-161 64 -263 151 q-132 -99 -304 -147 l-45 76 ZM368 352 q-33 -19 -123 -58 l0 -300 q0 -44 -19 -60 q-20 -17 -59 -17 l-107 0 l-12 82 l84 0 q33 0 33 28 l0 237 q-33 -13 -122 -39 l-13 87 q56 12 135 39 l0 233 l-127 0 l0 76 l127 0 l0 183 l80 0 l0 -183 l119 0 l0 -76 l-119 0 l0 -206 q83 31 117 49 l6 -75 Z" /><glyph glyph-name="" unicode="&#x5409;" d="M963 661 l-421 0 l0 -159 l367 0 l0 -75 l-817 0 l0 75 l366 0 l0 159 l-419 0 l0 76 l419 0 l0 105 l84 0 l0 -105 l421 0 l0 -76 ZM851 -83 l-83 0 l0 48 l-535 0 l0 -48 l-83 0 l0 407 l701 0 l0 -407 ZM768 249 l-535 0 l0 -209 l535 0 l0 209 Z" /><glyph glyph-name="" unicode="&#x5ba2;" d="M62 452 q209 75 317 228 l82 -17 q-31 -41 -39 -50 l355 0 l0 -63 q-72 -96 -198 -176 q179 -77 394 -102 l-28 -81 q-78 15 -111 23 l0 -298 l-80 0 l0 40 l-509 0 l0 -40 l-79 0 l0 297 l-111 -24 l-28 79 q84 12 183 36 q103 29 122 36 l96 37 q-64 44 -137 114 q-78 -59 -193 -108 l-36 69 ZM754 162 l-509 0 l0 -136 l509 0 l0 136 ZM358 546 q-9 -9 -12 -11 q79 -76 156 -121 q48 26 84 54 q32 24 50 42 l34 36 l-312 0 ZM772 229 q-166 44 -270 102 q-115 -55 -273 -102 l543 0 ZM540 844 l0 -79 l398 0 l0 -209 l-84 0 l0 135 l-710 0 l0 -135 l-82 0 l0 209 l394 0 l0 79 l84 0 Z" /><glyph glyph-name="" unicode="&#x811a;" d="M312 817 l0 -814 q0 -51 -18 -69 q-16 -18 -58 -18 l-73 0 l-15 81 l60 -1 q20 0 26 6 q6 8 6 32 l0 213 l-93 0 q-7 -212 -59 -329 l-64 60 q52 123 52 380 l0 459 l236 0 ZM240 745 l-91 0 l0 -176 l91 0 l0 176 ZM240 499 l-91 0 l0 -182 l91 0 l0 182 ZM600 270 q47 -124 77 -255 l-73 -26 q-4 21 -13 61 q-116 -27 -241 -42 l-17 77 l41 3 q21 68 36 144 q19 84 26 156 l-100 0 l0 72 l124 0 l0 174 l-110 0 l0 71 l110 0 l0 139 l76 0 l0 -139 l107 0 l0 -71 l-107 0 l0 -174 l123 0 l0 -72 l-143 0 q-31 -169 -69 -291 q78 11 128 20 q-22 81 -41 134 l66 19 ZM939 142 q0 -44 -13 -70 q-16 -22 -59 -22 l-64 0 l-16 76 l47 -1 q20 -1 24 6 q4 7 4 34 l0 564 l-100 0 l0 -813 l-77 0 l0 886 l254 0 l0 -660 Z" /><glyph glyph-name="" unicode="&#x4e45;" d="M763 729 l0 -58 q-48 -177 -140 -319 q45 -94 121 -185 q93 -111 227 -172 l-55 -78 q-234 133 -345 362 q-89 -118 -228 -217 q-117 -83 -263 -144 l-50 81 q133 47 232 109 q101 65 189 162 q143 156 216 382 l-302 0 q-110 -181 -281 -297 l-55 72 q133 86 209 189 q77 102 118 235 l88 -16 q-24 -73 -38 -106 l357 0 Z" /><glyph glyph-name="" unicode="&#x6551;" d="M959 683 l0 -78 l-51 0 q-9 -148 -41 -266 q-31 -112 -73 -178 q65 -90 175 -167 l-51 -76 q-105 86 -172 177 q-42 -46 -89 -85 q-51 -40 -74 -55 q-32 -20 -65 -39 l-52 71 q148 76 234 182 q-52 96 -87 245 q-22 -38 -48 -71 l-64 55 q125 161 156 444 l80 -8 q-10 -74 -27 -151 l249 0 ZM690 605 q-17 -56 -25 -78 q24 -174 82 -288 q71 124 82 366 l-139 0 ZM251 684 l0 158 l78 0 l0 -158 l219 0 l0 -77 l-219 0 l0 -618 q0 -36 -21 -53 q-19 -18 -47 -18 l-138 0 l-20 81 l124 -1 q24 0 24 19 l0 590 l-210 0 l0 77 l210 0 ZM117 565 q41 -81 71 -189 l-73 -24 q-20 70 -67 188 l69 25 ZM235 195 q-34 -31 -88 -65 q-51 -35 -103 -60 l-17 88 q90 40 193 120 l15 -83 ZM510 546 q-31 -114 -75 -194 l-72 28 q46 80 70 186 l77 -20 ZM498 73 q-54 78 -151 164 l48 53 q77 -60 158 -157 l-55 -60 ZM484 697 q-38 41 -122 89 l45 55 q80 -43 126 -87 l-49 -57 Z" /><glyph glyph-name="" unicode="&#x7a76;" d="M633 453 q-41 0 -59 15 q-19 13 -19 53 l0 162 l-142 0 q-6 -30 -15 -54 q-10 -26 -31 -57 q-24 -36 -53 -59 q-76 -64 -208 -101 l-29 77 q137 25 196 90 q27 30 40 53 q12 18 22 51 l-189 0 l0 -123 l-82 0 l0 198 l394 0 l0 86 l82 0 l0 -86 l396 0 l0 -180 l-37 0 q-4 -66 -22 -97 q-16 -28 -59 -28 l-185 0 ZM857 590 l0 93 l-229 0 l0 -133 q0 -10 1 -13 q3 -12 26 -12 l133 0 q23 0 29 15 q6 13 9 58 l31 -8 ZM34 -8 q84 21 144 52 q66 33 97 60 q34 26 58 66 q25 38 31 58 q5 11 15 50 l-291 0 l0 78 l306 0 q8 47 9 111 l82 0 q-5 -79 -10 -111 l281 0 l0 -322 q0 -14 4 -22 q7 -5 21 -5 l67 0 q24 0 30 27 q7 28 8 116 l77 -18 q-1 -121 -17 -163 q-15 -40 -66 -40 l-131 0 q-56 0 -68 41 q-5 18 -5 42 l0 266 l-215 0 q-18 -85 -57 -145 q-15 -24 -46 -59 q-34 -35 -68 -60 q-87 -62 -216 -103 l-40 81 Z" /><glyph glyph-name="" unicode="&#x65e7;" d="M922 798 l0 -873 l-83 0 l0 47 l-434 0 l0 -47 l-81 0 l0 873 l598 0 ZM405 719 l0 -291 l434 0 l0 291 l-434 0 ZM405 351 l0 -301 l434 0 l0 301 l-434 0 ZM82 -84 l0 928 l84 0 l0 -928 l-84 0 Z" /><glyph glyph-name="" unicode="&#x2f5c;&#x725b;" d="M455 657 l0 185 l84 0 l0 -185 l373 0 l0 -82 l-373 0 l0 -235 l421 0 l0 -84 l-421 0 l0 -338 l-84 0 l0 338 l-418 0 l0 84 l418 0 l0 235 l-247 0 q-51 -100 -122 -178 l-65 60 q144 140 192 369 l85 -17 q-21 -77 -52 -152 l209 0 Z" /><glyph glyph-name="" unicode="&#x5c45;" d="M610 451 l354 0 l0 -73 l-354 0 l0 -106 l277 0 l0 -357 l-81 0 l0 47 l-462 0 l0 -47 l-81 0 l0 357 l266 0 l0 106 l-338 0 q0 -295 -106 -461 l-64 67 q89 149 89 395 l0 429 l802 0 l0 -253 l-302 0 l0 -104 ZM529 555 l-338 0 l0 -104 l338 0 l0 104 ZM831 737 l-639 0 l0 -113 l639 0 l0 113 ZM806 202 l-462 0 l0 -169 l462 0 l0 169 Z" /><glyph glyph-name="" unicode="&#x4eac;" d="M851 277 l-313 0 l0 -277 q0 -41 -17 -64 q-16 -21 -65 -21 l-148 0 l-19 86 l135 -1 q21 0 28 5 q5 5 5 25 l0 247 l-310 0 l0 318 l704 0 l0 -318 ZM771 521 l-545 0 l0 -170 l545 0 l0 170 ZM962 678 l-926 0 l0 79 l417 0 l0 87 l85 0 l0 -87 l424 0 l0 -79 ZM30 8 q138 92 216 221 l71 -38 q-74 -132 -229 -248 l-58 65 ZM731 232 q56 -73 108 -123 q51 -48 123 -91 l-54 -70 q-77 46 -136 104 q-53 53 -114 139 l73 41 Z" /><glyph glyph-name="" unicode="&#x4f9b;" d="M504 844 l0 -189 l209 0 l0 189 l83 0 l0 -189 l148 0 l0 -79 l-148 0 l0 -245 l168 0 l0 -79 l-699 0 l0 79 l157 0 l0 245 l-142 0 l0 79 l142 0 l0 189 l82 0 ZM713 576 l-209 0 l0 -245 l209 0 l0 245 ZM215 -84 l-83 0 l0 508 q-32 -51 -71 -93 l-43 94 q142 163 192 424 l82 -14 q-22 -125 -77 -250 l0 -669 ZM249 -17 q62 36 123 97 q59 59 93 120 l72 -33 q-84 -147 -231 -249 l-57 65 ZM755 199 q40 -59 101 -117 q57 -57 119 -99 l-58 -67 q-57 41 -121 109 q-62 64 -109 133 l68 41 Z" /><glyph glyph-name="" unicode="&#x5171;" d="M930 583 l-208 0 l0 -263 l242 0 l0 -81 l-928 0 l0 81 l244 0 l0 263 l-210 0 l0 81 l210 0 l0 178 l82 0 l0 -178 l277 0 l0 178 l83 0 l0 -178 l208 0 l0 -81 ZM639 583 l-277 0 l0 -263 l277 0 l0 263 ZM390 151 q-56 -74 -121 -132 q-61 -55 -155 -108 l-63 70 q94 46 149 91 q54 41 117 119 l73 -40 ZM887 -89 q-89 59 -148 109 q-60 53 -123 129 l68 46 q109 -126 265 -212 l-62 -72 Z" /><glyph glyph-name="" unicode="&#x53eb;" d="M788 228 l0 616 l82 0 l0 -607 l92 11 l7 -78 l-99 -11 l0 -243 l-82 0 l0 234 l-375 -44 l-12 76 l93 11 l0 565 l82 0 l0 -555 l212 25 ZM361 775 l0 -685 l-229 0 l0 -81 l-77 0 l0 766 l306 0 ZM284 701 l-152 0 l0 -536 l152 0 l0 536 Z" /><glyph glyph-name="" unicode="&#x5883;" d="M608 764 l0 78 l79 0 l0 -78 l254 0 l0 -67 l-96 0 q-14 -57 -28 -97 l145 0 l0 -68 l-616 0 l0 68 l131 0 q-6 45 -23 97 l-83 0 l0 67 l237 0 ZM335 148 q-104 -56 -294 -112 l-12 84 q52 12 126 35 l0 359 l-117 0 l0 77 l117 0 l0 251 l79 0 l0 -251 l92 0 l0 -77 l-92 0 l0 -331 l58 24 q32 14 37 15 l6 -74 ZM735 600 q16 39 25 97 l-223 0 q18 -57 22 -97 l176 0 ZM915 160 l-157 0 l0 -136 q0 -19 3 -24 q3 -5 18 -5 l67 0 q20 0 27 6 q7 6 9 20 l4 34 l3 58 l73 -18 q-6 -122 -28 -150 q-15 -19 -26 -21 q-11 -5 -38 -5 l-120 0 q-49 0 -60 27 q-9 20 -9 43 l0 171 l-103 0 q-22 -93 -80 -155 q-62 -63 -188 -97 l-41 76 q116 23 165 66 q49 42 63 110 l-109 0 l0 313 l527 0 l0 -313 ZM839 410 l-374 0 l0 -64 l374 0 l0 64 ZM839 291 l-374 0 l0 -68 l374 0 l0 68 Z" /><glyph glyph-name="" unicode="&#x6559;" d="M962 687 l0 -81 l-52 0 q-24 -281 -123 -437 q70 -94 188 -177 l-50 -77 q-112 79 -189 185 q-93 -111 -236 -185 l-52 76 q154 71 242 181 q-63 117 -92 257 l-44 -69 l-63 59 q25 32 53 79 q20 36 52 132 q30 95 48 217 l80 -9 q-13 -85 -28 -151 l266 0 ZM674 606 q-3 -11 -22 -66 q21 -175 87 -297 q74 131 91 363 l-156 0 ZM580 786 q-56 -114 -140 -216 l89 0 l0 -73 l-155 0 q-49 -49 -91 -83 l195 0 l0 -63 q-51 -68 -137 -122 l0 -40 q69 7 199 26 l0 -70 q-98 -19 -199 -31 l0 -116 q0 -83 -82 -83 l-120 0 l-14 79 l113 -1 q27 0 27 24 l0 89 q-109 -13 -228 -20 l-6 78 q36 2 234 17 l0 91 l33 0 q49 37 74 74 l-179 0 q-60 -40 -129 -76 l-35 71 q134 64 238 156 l-230 0 l0 73 l190 0 l0 113 l-167 0 l0 71 l167 0 l0 90 l74 0 l0 -90 l137 0 l0 -66 q41 60 71 130 l71 -32 ZM342 570 q65 71 92 113 l-133 0 l0 -113 l41 0 Z" /><glyph glyph-name="" unicode="&#x51dd;" d="M482 -45 q71 77 95 165 q24 87 22 252 l72 0 q-1 -110 -14 -211 q28 -64 66 -97 l0 380 l-159 0 l0 68 l230 0 q-77 86 -174 146 l50 51 q35 -21 78 -55 q69 48 105 96 l-280 0 l0 69 l375 0 l0 -69 q-67 -83 -148 -138 q34 -30 56 -52 l-48 -48 l156 0 q-6 -101 -49 -200 l-70 22 q27 48 41 110 l-93 0 l0 -170 l155 0 l0 -70 l-155 0 l0 -182 q60 -22 181 -22 l-23 -82 q-118 0 -192 30 q-75 32 -124 117 q-28 -85 -87 -153 l-66 43 ZM317 845 l0 -104 q90 28 170 82 l53 -54 q-103 -64 -223 -99 l0 -49 q0 -11 1 -14 q2 -6 8 -10 q8 -5 21 -5 l97 0 q18 0 26 4 q11 3 21 22 q12 23 19 56 l67 -25 q-20 -80 -45 -101 q-24 -23 -74 -23 l-138 0 q-41 0 -60 17 q-18 20 -18 61 l0 242 l75 0 ZM298 368 q-20 -37 -45 -73 l-69 35 q42 53 62 94 q21 38 42 101 l66 -20 q-7 -33 -24 -71 l217 0 l0 -66 l-108 0 q-1 -64 -8 -120 l133 0 l0 -67 l-143 0 q-3 -19 -7 -30 q50 -45 111 -88 l-42 -62 q-42 33 -93 84 q-49 -100 -168 -172 l-47 61 q143 84 174 207 l-137 0 l0 67 l148 0 q6 59 6 120 l-68 0 ZM158 584 q-51 84 -130 157 l54 60 q75 -69 137 -156 l-61 -61 ZM19 18 q68 142 107 306 l72 -33 q-46 -206 -112 -338 l-67 65 Z" /><glyph glyph-name="" unicode="&#x5c40;" d="M938 468 q0 -144 -8 -286 q-7 -131 -16 -162 q-6 -23 -13 -40 q-5 -13 -18 -28 q-27 -35 -103 -35 l-123 0 l-19 84 l124 -1 q42 0 57 20 q9 12 13 28 q20 62 24 348 l-645 0 q-4 -220 -51 -340 q-21 -54 -37 -82 q-8 -16 -34 -54 l-66 58 q13 19 35 57 q16 34 32 77 q39 108 39 310 l0 383 l762 0 l0 -245 l-680 0 l0 -92 l727 0 ZM810 735 l-599 0 l0 -107 l599 0 l0 107 ZM719 28 l-431 0 l0 290 l431 0 l0 -290 ZM642 250 l-276 0 l0 -152 l276 0 l0 152 Z" /><glyph glyph-name="" unicode="&#x5747;" d="M387 194 q-65 -32 -177 -73 q-99 -38 -175 -61 l-14 86 q72 19 137 39 l0 360 l-120 0 l0 76 l120 0 l0 222 l81 0 l0 -222 l119 0 l0 -76 l-119 0 l0 -332 q90 33 135 52 l13 -71 ZM305 469 q158 158 198 381 l81 -11 q-15 -71 -36 -130 l395 0 q0 -430 -16 -557 q-9 -73 -27 -124 q-18 -52 -57 -80 q-40 -29 -120 -29 l-136 0 l-14 85 l139 -1 l38 1 q18 4 32 12 q21 11 30 30 q11 19 17 40 q6 21 15 78 q18 112 16 468 l-344 0 q-58 -133 -145 -214 l-66 51 ZM756 420 l-313 0 l0 74 l313 0 l0 -74 ZM370 161 q217 53 399 130 l12 -72 q-172 -82 -387 -142 l-24 84 Z" /><glyph glyph-name="" unicode="&#x2f44;&#x65a4;" d="M228 526 l732 0 l0 -80 l-304 0 l0 -530 l-87 0 l0 530 l-341 0 l0 -62 q0 -71 -14 -172 q-25 -190 -112 -299 l-68 59 q64 84 83 185 q24 131 24 230 l0 398 q203 -1 393 15 q192 18 303 49 l39 -80 q-124 -30 -321 -45 q-204 -14 -327 -14 l0 -184 Z" /><glyph glyph-name="" unicode="&#x83cc;" d="M919 621 l0 -704 l-83 0 l0 35 l-673 0 l0 -35 l-82 0 l0 704 l838 0 ZM836 550 l-673 0 l0 -526 l673 0 l0 526 ZM370 843 l0 -64 l261 0 l0 64 l83 0 l0 -64 l248 0 l0 -73 l-248 0 l0 -62 l-83 0 l0 62 l-261 0 l0 -62 l-82 0 l0 62 l-250 0 l0 73 l250 0 l0 64 l82 0 ZM768 73 q-141 75 -230 170 l0 -192 l-74 0 l0 191 q-87 -96 -233 -169 l-45 67 q146 47 251 155 l-225 0 l0 65 l252 0 l0 63 q-179 -7 -217 -7 l-18 67 q305 -5 514 36 l25 -65 q-85 -15 -230 -26 l0 -68 l253 0 l0 -65 l-220 0 q107 -107 241 -156 l-44 -66 Z" /><glyph glyph-name="" unicode="&#x2fa6;&#x91d1;" d="M784 486 l-247 0 l0 -122 l386 0 l0 -76 l-386 0 l0 -265 l85 0 q50 93 99 236 l84 -22 q-51 -140 -95 -214 l233 0 l0 -75 l-892 0 l0 75 l209 0 q-30 96 -82 206 l80 26 q55 -105 90 -232 l107 0 l0 265 l-388 0 l0 76 l388 0 l0 122 l-247 0 l0 68 q-72 -37 -138 -67 l-47 79 q118 39 241 115 q115 71 200 172 l72 0 q75 -84 193 -163 q119 -78 247 -126 l-46 -78 q-83 35 -146 72 l0 -72 ZM777 562 q-149 83 -279 215 q-126 -132 -275 -215 l554 0 Z" /><glyph glyph-name="" unicode="&#x4e5d;" d="M432 842 q-4 -153 -4 -175 l326 0 l0 -628 q0 -12 1 -15 q2 -12 25 -12 l49 0 q19 0 27 4 q8 5 12 17 q12 32 12 190 l88 -36 q-8 -138 -16 -177 q-9 -43 -22 -55 q-28 -24 -84 -24 l-89 0 q-87 0 -87 82 l0 571 l-247 0 q-10 -181 -41 -283 q-74 -251 -307 -378 l-58 75 q118 54 195 152 q75 97 96 200 q22 107 29 234 l-299 0 l0 83 l303 0 q3 78 3 175 l88 0 Z" /><glyph glyph-name="" unicode="&#x53e5;" d="M933 724 q-3 -357 -9 -467 q-4 -109 -30 -220 q-29 -122 -145 -122 l-137 0 l-19 82 l133 -1 q56 0 76 44 q46 107 46 606 l-595 0 q-83 -144 -176 -231 l-62 62 q178 171 236 371 l87 -12 q-16 -57 -43 -112 l638 0 ZM670 118 l-398 0 l0 -79 l-81 0 l0 481 l479 0 l0 -402 ZM589 446 l-317 0 l0 -253 l317 0 l0 253 Z" /><glyph glyph-name="" unicode="&#x82e6;" d="M537 311 l323 0 l0 -394 l-82 0 l0 42 l-560 0 l0 -42 l-83 0 l0 394 l320 0 l0 126 l-417 0 l0 76 l417 0 l0 109 l82 0 l0 -109 l425 0 l0 -76 l-425 0 l0 -126 ZM778 238 l-560 0 l0 -206 l560 0 l0 206 ZM258 756 l0 86 l80 0 l0 -86 l320 0 l0 86 l79 0 l0 -86 l225 0 l0 -77 l-225 0 l0 -102 l-79 0 l0 102 l-320 0 l0 -102 l-80 0 l0 102 l-220 0 l0 77 l220 0 Z" /><glyph glyph-name="" unicode="&#x5f84;" d="M266 403 q153 34 295 106 q-92 76 -148 168 l70 36 q70 -103 148 -162 q98 70 168 178 l-471 0 l0 75 l567 0 l0 -73 q-84 -139 -197 -225 q108 -63 277 -103 l-37 -78 q-175 45 -310 135 q-144 -83 -330 -137 l-32 80 ZM20 329 q142 115 228 302 l68 -34 q-40 -97 -96 -177 l0 -506 l-81 0 l0 406 q-30 -31 -85 -79 l-34 88 ZM23 617 q125 92 195 232 l73 -30 q-81 -166 -233 -280 l-35 78 ZM922 191 l-255 0 l0 -164 l296 0 l0 -75 l-671 0 l0 75 l293 0 l0 164 l-251 0 l0 75 l251 0 l0 100 l82 0 l0 -100 l255 0 l0 -75 Z" /><glyph glyph-name="" unicode="&#x666f;" d="M964 412 l-926 0 l0 65 l421 0 l0 52 l-328 0 l0 283 l742 0 l0 -283 l-335 0 l0 -52 l426 0 l0 -65 ZM793 747 l-583 0 l0 -52 l583 0 l0 52 ZM793 643 l-583 0 l0 -56 l583 0 l0 56 ZM856 361 l0 -212 l-318 0 l0 -161 q0 -49 -34 -62 q-18 -8 -45 -8 l-145 0 l-17 81 l132 -2 q15 0 23 5 q6 6 6 21 l0 126 l-310 0 l0 212 l708 0 ZM779 299 l-551 0 l0 -89 l551 0 l0 89 ZM33 3 q148 60 226 138 l62 -46 q-41 -44 -114 -91 q-70 -44 -129 -67 l-45 66 ZM734 138 q107 -92 236 -140 l-55 -64 q-58 24 -127 66 q-70 41 -118 89 l64 49 Z" /><glyph glyph-name="" unicode="&#x830e;" d="M937 252 q-265 24 -446 92 q-192 -65 -427 -93 l-23 83 q182 13 349 53 q-105 52 -194 120 l56 37 l-143 0 l0 72 l749 0 l0 -67 q-96 -93 -256 -163 q164 -41 358 -51 l-23 -83 ZM274 544 q98 -77 224 -125 q131 47 227 125 l-451 0 ZM289 775 l0 67 l80 0 l0 -67 l259 0 l0 67 l81 0 l0 -67 l253 0 l0 -74 l-253 0 l0 -55 l-81 0 l0 55 l-259 0 l0 -55 l-80 0 l0 55 l-251 0 l0 74 l251 0 ZM459 215 l0 82 l83 0 l0 -82 l334 0 l0 -72 l-334 0 l0 -123 l421 0 l0 -74 l-924 0 l0 74 l420 0 l0 123 l-331 0 l0 72 l331 0 Z" /><glyph glyph-name="" unicode="&#x8b66;" d="M362 498 l-257 0 l0 101 q-11 -9 -47 -32 l-35 48 q81 49 121 123 l38 0 l0 23 l-144 0 l0 48 l144 0 l0 34 l64 0 l0 -34 l112 0 l0 34 l66 0 l0 -34 l106 0 l0 -48 l-106 0 l0 -48 l78 0 q0 -38 -5 -123 q-4 -75 -15 -92 q-20 -26 -50 -26 l-66 0 l-4 26 ZM175 671 q-17 -21 -35 -40 l226 0 l0 -96 l41 -1 q14 0 18 9 q10 21 10 128 l-260 0 ZM358 713 l0 48 l-112 0 l0 -48 l112 0 ZM305 590 l-138 0 l0 -51 l138 0 l0 51 ZM960 785 l0 -57 l-63 0 q-32 -78 -101 -138 q62 -30 177 -64 l-35 -68 q-108 35 -198 91 q-93 -56 -195 -77 l-36 64 q95 16 173 55 q-40 32 -76 79 q-17 -17 -50 -46 l-44 47 q46 36 80 76 q32 42 58 99 l71 -3 q-12 -27 -28 -58 l267 0 ZM657 728 l-9 -12 q38 -52 90 -92 q54 40 85 104 l-166 0 ZM787 57 l-576 0 l0 -64 l576 0 l0 64 ZM868 145 l-736 0 l0 46 l736 0 l0 -46 ZM868 -82 l-81 0 l0 26 l-576 0 l0 -26 l-79 0 l0 188 l736 0 l0 -188 ZM868 402 l-736 0 l0 48 l736 0 l0 -48 ZM965 314 l-929 0 l0 50 l929 0 l0 -50 ZM868 229 l-736 0 l0 46 l736 0 l0 -46 Z" /><glyph glyph-name="" unicode="&#x6fc0;" d="M964 680 l0 -76 l-36 0 q-8 -285 -91 -447 q59 -97 135 -159 l-46 -80 q-81 82 -134 164 q-69 -97 -172 -166 l-47 68 q114 72 176 174 q-52 114 -78 296 q-22 -40 -43 -66 l-48 49 l-119 0 l0 -74 l168 0 l0 -66 l-239 0 q-1 -34 -4 -74 l190 0 q-4 -191 -27 -253 q-22 -54 -92 -54 l-90 0 l-13 77 l93 -1 q28 0 37 24 q10 24 17 143 l-127 0 q-36 -147 -144 -243 l-61 52 q79 65 111 136 q34 69 39 193 l-81 0 l0 66 l148 0 l0 74 l-125 0 l0 335 l98 0 q18 40 26 75 l82 -6 q-12 -39 -27 -69 l152 0 l0 -297 q96 150 118 370 l79 -5 q-9 -80 -29 -160 l204 0 ZM524 713 l-195 0 l0 -77 l195 0 l0 77 ZM524 581 l-195 0 l0 -85 l195 0 l0 85 ZM736 604 q-6 -18 -13 -36 q10 -181 71 -323 q57 141 62 359 l-120 0 ZM201 675 q-61 53 -150 96 l45 66 q79 -33 155 -91 l-50 -71 ZM171 402 q-56 53 -146 101 l42 62 q89 -37 153 -96 l-49 -67 ZM26 -7 q81 143 121 307 l72 -36 q-43 -186 -131 -342 l-62 71 Z" /><glyph glyph-name="" unicode="&#x4ef6;" d="M614 652 l0 193 l85 0 l0 -193 l239 0 l0 -81 l-239 0 l0 -236 l263 0 l0 -82 l-263 0 l0 -338 l-85 0 l0 338 l-336 0 l0 82 l336 0 l0 236 l-178 0 q-37 -96 -87 -169 l-69 54 q93 137 134 344 l80 -15 q-13 -69 -31 -133 l151 0 ZM228 -85 l-84 0 l0 525 q-46 -70 -80 -108 l-44 94 q64 70 124 190 q57 117 80 229 l84 -16 q-22 -100 -80 -231 l0 -683 Z" /><glyph glyph-name="" unicode="&#x4e4e;" d="M542 360 l421 0 l0 -79 l-421 0 l0 -268 q0 -48 -20 -71 q-22 -24 -74 -24 l-175 0 l-17 83 l170 -1 q32 0 32 29 l0 252 l-421 0 l0 79 l421 0 l0 351 q-161 -9 -337 -12 l-16 81 q210 -6 429 15 q216 21 324 50 l32 -78 q-129 -28 -348 -49 l0 -358 ZM243 390 q-26 124 -89 245 l76 25 q57 -105 92 -244 l-79 -26 ZM673 419 q69 113 104 257 l85 -28 q-44 -150 -116 -261 l-73 32 Z" /><glyph glyph-name="" unicode="&#x53e4;" d="M964 608 l-424 0 l0 -187 l322 0 l0 -505 l-83 0 l0 56 l-560 0 l0 -56 l-84 0 l0 505 l322 0 l0 187 l-420 0 l0 81 l420 0 l0 153 l83 0 l0 -153 l424 0 l0 -81 ZM779 344 l-560 0 l0 -295 l560 0 l0 295 Z" /><glyph glyph-name="" unicode="&#x547c;" d="M316 785 l0 -693 l-184 0 l0 -80 l-76 0 l0 773 l260 0 ZM241 710 l-109 0 l0 -543 l109 0 l0 543 ZM691 359 l270 0 l0 -81 l-270 0 l0 -253 q0 -57 -21 -83 q-22 -24 -90 -24 l-116 0 l-18 86 l132 -1 q20 0 25 5 q5 7 5 26 l0 244 l-262 0 l0 81 l262 0 l0 363 q-112 -16 -250 -21 l-15 73 q125 1 277 24 q152 23 254 58 l54 -68 q-86 -29 -237 -55 l0 -374 ZM458 409 q-25 98 -86 217 l71 24 q61 -109 90 -217 l-75 -24 ZM763 436 q56 103 93 229 l77 -18 q-40 -140 -96 -238 l-74 27 Z" /><glyph glyph-name="" unicode="&#x56fa;" d="M743 422 l0 -313 l-483 0 l0 313 l201 0 l0 112 l-261 0 l0 69 l261 0 l0 92 l78 0 l0 -92 l261 0 l0 -69 l-261 0 l0 -112 l204 0 ZM337 355 l0 -178 l329 0 l0 178 l-329 0 ZM924 807 l0 -890 l-84 0 l0 40 l-681 0 l0 -40 l-83 0 l0 890 l848 0 ZM159 734 l0 -703 l681 0 l0 703 l-681 0 Z" /><glyph glyph-name="" unicode="&#x2f30;&#x5df1;" d="M894 807 l0 -416 l-705 0 l0 -334 q0 -28 13 -37 q11 -11 46 -11 l558 0 q37 0 50 11 q13 10 16 35 q5 41 8 90 l3 58 l86 -23 q-4 -119 -15 -164 q-13 -44 -28 -58 q-32 -28 -104 -28 l-605 0 q-64 0 -89 26 q-26 24 -26 80 l0 432 l705 0 l0 260 l-737 0 l0 79 l824 0 Z" /><glyph glyph-name="" unicode="&#x5f27;" d="M861 755 q0 -494 118 -764 l-63 -72 q-67 152 -94 329 q-25 177 -38 490 q-66 -13 -116 -20 l0 -643 q68 13 74 15 q-16 67 -41 135 l62 15 q57 -142 78 -294 l-73 -16 q-4 44 -12 93 q-39 -9 -79 -17 l-202 -38 l-16 76 q77 9 137 19 l0 645 q-54 -7 -109 -11 l0 -261 q0 -351 -101 -521 l-64 65 q88 145 88 455 l0 331 q116 6 258 30 q139 22 229 53 l40 -72 q-54 -17 -76 -22 ZM326 815 l0 -309 l-175 0 q-4 -50 -19 -147 l203 0 q0 -105 -13 -229 q-16 -119 -27 -148 q-13 -33 -37 -49 q-23 -16 -78 -16 l-103 0 l-15 83 l110 0 q41 0 53 29 q11 25 20 103 q8 76 10 152 l-210 0 q17 84 31 274 l1 23 l173 0 l0 157 l-211 0 l0 77 l287 0 Z" /><glyph glyph-name="" unicode="&#x6545;" d="M962 684 l0 -80 l-64 0 q-33 -281 -140 -448 q75 -90 215 -169 l-54 -79 q-129 81 -209 182 q-85 -101 -215 -179 l-54 72 l3 1 l-284 0 l0 -66 l-80 0 l0 485 l148 0 l0 200 l-191 0 l0 80 l191 0 l0 160 l80 0 l0 -160 l181 0 l0 -80 l-181 0 l0 -200 l150 0 l0 -411 q121 64 202 168 q-83 142 -106 301 q-14 -22 -47 -63 l-66 53 q125 146 168 392 l87 -12 q-19 -85 -40 -147 l306 0 ZM627 604 q-7 -17 -17 -38 q23 -212 97 -338 q95 164 111 376 l-191 0 ZM379 328 l-219 0 l0 -272 l219 0 l0 272 Z" /><glyph glyph-name="" unicode="&#x67af;" d="M371 241 q-49 65 -93 159 l0 -482 l-80 0 l0 496 q-55 -165 -146 -285 l-32 97 q110 132 175 349 l-157 0 l0 74 l160 0 l0 193 l80 0 l0 -193 l116 0 l0 -74 l-116 0 l0 -57 q45 -109 139 -205 l-46 -72 ZM732 842 l0 -166 l230 0 l0 -77 l-230 0 l0 -200 l194 0 l0 -481 l-78 0 l0 53 l-315 0 l0 -53 l-78 0 l0 481 l196 0 l0 200 l-233 0 l0 77 l233 0 l0 166 l81 0 ZM848 324 l-315 0 l0 -277 l315 0 l0 277 Z" /><glyph glyph-name="" unicode="&#x6e56;" d="M267 32 l0 401 l114 0 l0 175 l-141 0 l0 76 l141 0 l0 157 l81 0 l0 -157 l144 0 l0 -76 l-144 0 l0 -175 l117 0 l0 -393 q64 127 64 324 l0 448 l291 0 l0 -818 q0 -46 -20 -62 q-18 -15 -57 -15 l-125 0 l-14 80 l106 -1 q11 0 19 2 q14 3 14 28 l0 224 l-141 0 q-19 -207 -115 -333 l-67 52 q26 36 41 63 l-308 0 ZM857 737 l-137 0 l0 -168 l137 0 l0 168 ZM857 493 l-137 0 l0 -167 l137 0 l0 167 ZM504 359 l-162 0 l0 -253 l162 0 l0 253 ZM206 670 q-66 56 -153 97 l47 68 q89 -37 160 -94 l-54 -71 ZM173 399 q-69 62 -150 99 l42 66 q84 -35 157 -96 l-49 -69 ZM22 -4 q91 127 152 308 l73 -42 q-70 -198 -164 -339 l-61 73 Z" /><glyph glyph-name="" unicode="&#x80a1;" d="M372 817 l0 -828 q0 -23 -10 -40 q-19 -33 -65 -33 l-111 0 l-19 86 l105 -1 q13 0 18 5 q5 5 5 22 l0 218 l-140 0 q-12 -124 -27 -192 q-15 -67 -50 -138 l-64 72 q41 86 50 160 q16 121 16 223 l0 446 l292 0 ZM156 742 l0 -174 l139 0 l0 174 l-139 0 ZM156 495 l0 -176 l139 0 l0 176 l-139 0 ZM934 -87 q-145 45 -255 127 q-100 -75 -243 -124 l-49 71 q128 38 229 107 q-91 89 -150 198 l71 33 q55 -111 140 -184 q98 86 141 198 l-414 0 l0 78 l508 0 l0 -71 q-61 -152 -172 -254 q101 -73 239 -103 l-45 -76 ZM828 817 l0 -240 q0 -21 17 -21 l28 0 q16 0 22 18 q6 16 9 80 l74 -19 q-7 -85 -24 -121 q-18 -36 -57 -36 l-88 0 q-33 0 -45 18 q-14 15 -14 37 l0 208 l-181 0 l0 -32 q0 -22 -9 -69 q-24 -120 -123 -200 l-64 59 q60 41 83 86 q36 74 36 134 l0 98 l336 0 Z" /><glyph glyph-name="" unicode="&#x80e1;" d="M928 816 l0 -817 q0 -61 -36 -75 q-21 -8 -47 -8 l-128 0 l-17 83 l116 -1 q19 0 26 6 q8 6 8 27 l0 207 l-231 0 q-26 -184 -132 -320 l-70 55 q10 11 41 50 q15 22 41 73 q52 101 52 296 l0 424 l377 0 ZM850 740 l-222 0 l0 -172 l222 0 l0 172 ZM850 494 l-222 0 l0 -109 q0 -46 -1 -72 l223 0 l0 181 ZM78 -38 l0 459 l150 0 l0 179 l-191 0 l0 78 l191 0 l0 165 l80 0 l0 -165 l193 0 l0 -78 l-193 0 l0 -179 l157 0 l0 -378 l-309 0 l0 -81 l-78 0 ZM386 346 l-230 0 l0 -229 l230 0 l0 229 Z" /><glyph glyph-name="" unicode="&#x2ec1;&#x864e;" d="M777 513 l5 -64 l-271 -22 l0 -44 q0 -27 24 -27 l231 0 q26 0 38 16 q10 17 16 60 l78 -18 q-11 -75 -36 -100 q-24 -27 -65 -27 l-295 0 q-50 0 -62 29 q-7 15 -7 41 l0 64 l-203 -16 l-5 64 l208 17 l0 82 l-240 0 l0 -265 q0 -102 -27 -204 q-27 -102 -80 -176 l-65 62 q50 69 67 142 q24 111 24 176 l0 337 l324 0 l0 201 l82 0 l0 -62 l370 0 l0 -72 l-370 0 l0 -67 l438 0 q-9 -118 -34 -191 l-75 21 q16 45 22 98 l-358 0 l0 -76 l266 21 ZM172 -25 q110 41 152 102 q44 62 51 177 l80 -4 q-8 -131 -58 -210 q-51 -79 -173 -132 l-52 67 ZM663 -77 q-53 0 -65 29 q-9 21 -9 46 l0 252 l81 0 l0 -228 q0 -13 6 -18 q6 -4 18 -4 l132 0 q21 0 28 6 q21 14 21 140 l82 -19 q-5 -108 -18 -148 q-18 -56 -88 -56 l-188 0 Z" /><glyph glyph-name="" unicode="&#x2fce;&#x9f13;" d="M466 473 l0 -227 l-387 0 l0 227 l387 0 ZM393 407 l-241 0 l0 -95 l241 0 l0 95 ZM687 708 l0 136 l79 0 l0 -136 l196 0 l0 -78 l-196 0 l0 -153 l157 0 l0 -73 q-44 -168 -148 -281 q90 -84 203 -133 l-51 -75 q-115 60 -207 153 q-97 -87 -241 -155 l-55 71 q145 48 243 142 q-91 109 -125 214 l74 23 q40 -102 105 -182 q84 98 120 222 l-311 0 l0 74 l157 0 l0 153 l-188 0 l0 58 l-186 0 l0 -86 l171 0 l0 -70 l-423 0 l0 70 l175 0 l0 86 l-196 0 l0 71 l196 0 l0 85 l77 0 l0 -85 l187 0 l0 -51 l187 0 ZM499 25 q-92 -25 -233 -48 q-130 -21 -222 -31 l-10 78 q115 11 280 36 q16 52 40 170 l81 -16 q-22 -82 -45 -141 q41 6 109 22 l0 -70 ZM151 64 q-12 71 -39 145 l73 20 q30 -72 44 -142 l-78 -23 Z" /><glyph glyph-name="" unicode="&#x4e92;" d="M787 588 q-8 -261 -32 -559 l206 0 l0 -78 l-922 0 l0 78 l632 0 l7 85 q3 68 5 77 l-505 0 q75 312 90 541 l-202 0 l0 78 l867 0 l0 -78 l-583 0 q-6 -80 -14 -144 l451 0 ZM326 513 q-23 -160 -45 -247 l407 0 q7 89 16 247 l-378 0 Z" /><glyph glyph-name="" unicode="&#x4faf;" d="M961 279 l0 -74 l-278 0 q97 -156 292 -214 l-37 -74 q-227 77 -325 263 q-80 -183 -329 -262 l-34 78 q62 17 119 46 q122 62 168 163 l-272 0 l0 74 l294 0 q14 60 15 120 l-135 0 q-43 -62 -87 -106 l-67 51 q48 39 89 100 q38 54 59 118 l76 -20 q-10 -31 -28 -70 l442 0 l0 -73 l-269 0 q-1 -41 -13 -120 l320 0 ZM211 -82 l-80 0 l0 512 q-27 -43 -69 -94 l-43 95 q139 170 175 417 l83 -14 q-24 -129 -66 -238 l0 -678 ZM826 644 l135 0 l0 -73 l-696 0 l0 73 l478 0 l8 96 l-400 0 l0 72 l486 0 l-11 -168 Z" /><glyph glyph-name="" unicode="&#x5149;" d="M191 804 q42 -43 83 -106 q42 -62 65 -118 l-79 -43 q-44 110 -143 222 l74 45 ZM893 777 q-60 -134 -160 -244 l-69 46 q97 116 145 233 l84 -35 ZM456 494 l0 348 l83 0 l0 -348 l423 0 l0 -82 l-317 0 l0 -371 q0 -11 1 -13 q1 -5 8 -10 q10 -5 22 -5 l135 0 q23 0 33 7 q10 7 22 49 q11 49 15 127 l84 -20 q-10 -102 -25 -158 q-13 -49 -38 -68 q-25 -19 -76 -19 l-161 0 q-64 0 -81 16 q-21 18 -21 58 l0 407 l-143 0 q-4 -384 -347 -495 l-43 80 q183 54 248 173 q58 103 58 242 l-300 0 l0 82 l420 0 Z" /><glyph glyph-name="" unicode="&#x529f;" d="M939 654 q0 -495 -36 -617 q-23 -76 -63 -97 q-37 -23 -106 -23 l-116 0 l-15 85 l120 -3 q60 -3 81 25 q50 64 50 551 l-175 0 q-1 -124 -21 -220 q-18 -94 -59 -180 q-83 -168 -281 -262 l-53 73 q157 71 233 186 q68 105 86 254 q7 64 9 149 l-195 0 l0 79 l196 0 l3 191 l86 0 l-3 -191 l259 0 ZM446 198 q-76 -33 -202 -76 q-136 -43 -210 -61 l-14 84 q69 15 165 43 l0 492 l-148 0 l0 82 l390 0 l0 -82 l-158 0 l0 -466 q103 33 167 59 l10 -75 Z" /><glyph glyph-name="" unicode="&#x539a;" d="M892 390 l-610 0 l0 287 l610 0 l0 -287 ZM816 621 l-459 0 l0 -61 l459 0 l0 61 ZM816 511 l-459 0 l0 -66 l459 0 l0 66 ZM964 171 l0 -70 l-332 0 l0 -111 q0 -39 -18 -56 q-19 -18 -74 -18 l-136 0 l-18 79 l131 0 q21 0 27 7 q6 6 6 23 l0 76 l-344 0 l0 70 l344 0 l0 51 q61 0 168 46 l-436 0 l0 66 l580 0 l0 -63 q-111 -60 -230 -91 l0 -9 l332 0 ZM964 802 l0 -70 l-776 0 l0 -361 q0 -115 -19 -233 q-20 -124 -73 -222 l-70 60 q48 82 64 188 q15 107 15 207 l0 431 l859 0 Z" /><glyph glyph-name="" unicode="&#x2f1d;&#x53e3;" d="M185 -56 l-87 0 l0 825 l804 0 l0 -825 l-87 0 l0 62 l-630 0 l0 -62 ZM185 89 l630 0 l0 597 l-630 0 l0 -597 Z" /><glyph glyph-name="" unicode="&#x540e;" d="M963 580 l0 -77 l-746 0 l0 -89 q0 -305 -121 -493 l-69 68 q53 72 81 187 q25 116 25 236 l0 362 q425 -3 708 78 l43 -76 q-290 -71 -667 -76 l0 -120 l746 0 ZM883 -85 l-83 0 l0 50 l-430 0 l0 -50 l-83 0 l0 464 l596 0 l0 -464 ZM800 304 l-430 0 l0 -265 l430 0 l0 265 Z" /><glyph glyph-name="" unicode="&#x597d;" d="M392 666 q-22 -310 -86 -463 q68 -54 126 -114 l-61 -66 q-52 58 -102 104 q-67 -115 -189 -207 l-55 69 q116 75 182 191 q-74 58 -162 104 q48 144 74 305 l-83 0 l0 77 l95 0 q12 87 17 178 l84 -6 q-15 -126 -22 -172 l182 0 ZM197 589 q-17 -99 -60 -269 q74 -46 104 -68 q47 117 68 337 l-112 0 ZM930 726 q-60 -95 -198 -209 l0 -74 l230 0 l0 -79 l-230 0 l0 -357 q0 -46 -28 -68 q-28 -23 -66 -23 l-158 0 l-15 85 l155 -1 q29 0 29 32 l0 332 l-249 0 l0 79 l249 0 l0 136 l45 0 q89 72 140 147 l-401 0 l0 79 l497 0 l0 -79 Z" /><glyph glyph-name="" unicode="&#x5b54;" d="M526 379 q-69 -28 -212 -67 l0 -306 q0 -52 -23 -72 q-22 -18 -67 -18 l-138 0 l-14 85 l119 -3 q26 -1 33 6 q7 8 7 35 l0 252 q-97 -24 -196 -40 l-13 84 q106 18 209 41 l0 194 l34 0 q85 80 135 166 l-362 0 l0 76 l466 0 l0 -75 q-71 -122 -190 -225 l0 -116 q144 40 206 62 l6 -79 ZM669 53 q0 -34 9 -45 q7 -10 36 -10 l106 0 q37 0 47 25 q9 23 14 168 l89 -23 q-10 -156 -32 -204 q-23 -46 -90 -46 l-154 0 q-71 0 -90 19 q-20 20 -20 87 l0 820 l85 0 l0 -791 Z" /><glyph glyph-name="" unicode="&#x2f2f;&#x5de5;" d="M925 778 l0 -82 l-381 0 l0 -647 l419 0 l0 -82 l-926 0 l0 82 l418 0 l0 647 l-380 0 l0 82 l850 0 Z" /><glyph glyph-name="" unicode="&#x5eb7;" d="M930 232 q-58 -64 -145 -127 q78 -45 188 -85 l-47 -77 q-209 78 -334 233 l0 -186 q0 -74 -73 -74 l-121 0 l-16 82 l107 -1 q14 0 21 5 q4 8 4 18 l0 268 l-281 0 l0 64 l281 0 l0 74 l-325 0 l0 -78 q0 -251 -97 -433 l-68 71 q45 76 65 178 q19 98 19 191 l0 416 l361 0 l0 73 l83 0 l0 -73 l406 0 l0 -74 l-769 0 l0 -205 l325 0 l0 68 l-281 0 l0 65 l281 0 l0 47 l78 0 l0 -47 l293 0 l0 -133 l79 0 l0 -66 l-79 0 l0 -138 l-293 0 l0 -9 q55 -77 128 -132 q85 63 143 134 l67 -49 ZM592 560 l0 -68 l214 0 l0 68 l-214 0 ZM592 426 l0 -74 l214 0 l0 74 l-214 0 ZM279 280 q93 -44 148 -88 l-53 -61 q-54 51 -140 91 l45 58 ZM480 81 q-42 -23 -281 -123 l-31 72 q129 40 299 121 l13 -70 Z" /><glyph glyph-name="" unicode="&#x6297;" d="M371 351 q-102 -45 -127 -55 l0 -307 q0 -39 -19 -59 q-20 -20 -67 -20 l-102 0 l-11 84 l83 -1 q14 0 18 1 q5 0 11 7 q6 8 6 20 l0 244 q-55 -22 -123 -43 l-11 86 q76 20 134 40 l0 233 l-129 0 l0 76 l129 0 l0 187 l81 0 l0 -187 l115 0 l0 -76 l-115 0 l0 -203 q76 29 122 49 l5 -76 ZM688 844 l0 -133 l274 0 l0 -76 l-586 0 l0 76 l226 0 l0 133 l86 0 ZM825 22 q0 -13 5 -18 q6 -4 19 -4 l19 0 q12 0 18 6 q5 13 9 52 q5 45 6 114 l72 -21 q-6 -185 -43 -219 q-16 -15 -45 -15 l-76 0 q-39 0 -52 19 q-13 17 -13 47 l0 476 l-207 0 l0 -156 q0 -171 -59 -260 q-31 -46 -62 -73 q-31 -29 -81 -58 l-49 74 q47 26 73 46 q27 22 52 58 q46 65 46 218 l0 228 l368 0 l0 -514 Z" /><glyph glyph-name="" unicode="&#x6c5f;" d="M257 656 q-76 68 -176 117 l46 66 q86 -35 181 -107 l-51 -76 ZM939 699 l-267 0 l0 -656 l291 0 l0 -81 l-702 0 l0 81 l325 0 l0 656 l-246 0 l0 81 l599 0 l0 -81 ZM194 392 q-60 57 -169 114 l41 70 q91 -39 182 -110 l-54 -74 ZM29 -3 q56 65 115 161 q60 101 93 173 l65 -57 q-36 -80 -97 -180 q-62 -101 -122 -174 l-54 77 Z" /><glyph glyph-name="" unicode="&#x6d2a;" d="M730 653 l0 189 l82 0 l0 -189 l132 0 l0 -81 l-132 0 l0 -258 l152 0 l0 -79 l-686 0 l0 79 l152 0 l0 258 l-138 0 l0 81 l138 0 l0 189 l83 0 l0 -189 l217 0 ZM730 572 l-217 0 l0 -258 l217 0 l0 258 ZM19 -20 q83 128 149 356 l74 -41 q-28 -97 -70 -202 q-45 -112 -89 -177 l-64 64 ZM231 659 q-70 67 -161 109 l45 65 q99 -44 168 -103 l-52 -71 ZM182 398 q-68 61 -160 105 l44 64 q81 -36 166 -100 l-50 -69 ZM767 201 q72 -143 213 -229 l-62 -68 q-145 99 -226 257 l75 40 ZM241 -30 q151 98 224 225 l77 -36 q-36 -71 -101 -137 q-68 -72 -143 -118 l-57 66 Z" /><glyph glyph-name="" unicode="&#x7532;" d="M458 -83 l0 322 l-283 0 l0 -51 l-82 0 l0 620 l814 0 l0 -620 l-82 0 l0 51 l-286 0 l0 -322 l-81 0 ZM175 732 l0 -166 l283 0 l0 166 l-283 0 ZM539 732 l0 -166 l286 0 l0 166 l-286 0 ZM175 493 l0 -178 l283 0 l0 178 l-283 0 ZM539 493 l0 -178 l286 0 l0 178 l-286 0 Z" /><glyph glyph-name="" unicode="&#x7687;" d="M413 770 q15 30 27 80 l87 -5 q-11 -42 -28 -75 l392 0 l0 -365 l-782 0 l0 365 l304 0 ZM808 700 l-616 0 l0 -82 l616 0 l0 82 ZM808 556 l-616 0 l0 -84 l616 0 l0 84 ZM543 185 l360 0 l0 -67 l-360 0 l0 -96 l420 0 l0 -74 l-926 0 l0 74 l422 0 l0 96 l-359 0 l0 67 l359 0 l0 84 l-389 0 l0 73 l864 0 l0 -73 l-391 0 l0 -84 Z" /><glyph glyph-name="" unicode="&#x80af;" d="M835 488 l0 -494 q0 -29 -20 -54 q-20 -22 -64 -22 l-138 0 l-15 79 l126 -1 q15 0 22 5 q6 5 6 24 l0 94 l-504 0 l0 -201 l-83 0 l0 570 l670 0 ZM752 416 l-504 0 l0 -78 l504 0 l0 78 ZM752 268 l-504 0 l0 -79 l504 0 l0 79 ZM891 708 l-345 0 l0 -83 l416 0 l0 -72 l-924 0 l0 72 l166 0 l0 182 l82 0 l0 -182 l177 0 l0 217 l83 0 l0 -61 l345 0 l0 -73 Z" /><glyph glyph-name="" unicode="&#x822a;" d="M282 350 l0 -258 l-62 0 l0 251 q-5 0 -10 -1 l-21 -2 q-13 -2 -28 -3 q-1 -66 -5 -129 q-3 -49 -20 -142 q-17 -89 -48 -149 l-63 51 q30 68 45 144 q15 85 19 218 q-40 -4 -56 -4 l-8 75 l65 5 l0 342 l99 0 q25 54 35 97 l83 -9 q-13 -39 -35 -88 l152 0 l0 -307 q3 0 11 2 l37 6 l0 -70 l-48 -9 l0 -367 q0 -86 -81 -86 l-98 0 l-15 81 l92 -1 q14 0 17 1 q13 3 13 30 l0 332 l-70 -10 ZM161 412 q78 6 191 19 l0 245 l-191 0 l0 -264 ZM256 637 q41 -84 60 -155 l-64 -21 q-21 75 -57 152 l61 24 ZM734 845 l0 -134 l234 0 l0 -76 l-510 0 l0 76 l194 0 l0 134 l82 0 ZM851 540 l0 -515 q0 -14 5 -17 q4 -2 22 -2 q18 0 24 16 q8 13 11 150 l62 -14 q0 -166 -19 -201 q-16 -30 -65 -30 l-44 0 q-51 0 -65 27 q-10 19 -10 46 l0 465 l-176 0 l0 -159 q0 -174 -42 -272 q-18 -41 -34 -68 l-34 -49 l-55 66 q64 94 80 199 q9 59 9 130 l0 228 l331 0 Z" /><glyph glyph-name="" unicode="&#x2f8f;&#x884c;" d="M17 327 q146 104 259 317 l71 -36 q-57 -109 -106 -174 l0 -518 l-85 0 l0 417 q-50 -53 -107 -98 l-32 92 ZM20 620 q132 73 227 234 l71 -33 q-38 -74 -106 -153 q-71 -78 -148 -128 l-44 80 ZM924 723 l-524 0 l0 78 l524 0 l0 -78 ZM963 445 l-161 0 l0 -447 q0 -44 -19 -63 q-19 -19 -70 -19 l-172 0 l-15 91 l162 -2 q16 0 24 5 q6 6 6 23 l0 412 l-360 0 l0 81 l605 0 l0 -81 Z" /><glyph glyph-name="" unicode="&#x8861;" d="M272 626 q-3 -1 -7 -5 l-49 54 q118 75 170 174 l74 -18 q-12 -22 -29 -48 l194 0 l0 -64 q-36 -48 -72 -82 l123 0 l0 -358 l-160 0 q-2 -45 -7 -75 l196 0 l0 -67 l-176 0 q52 -73 148 -133 l-39 -62 q-96 58 -162 154 q-27 -58 -76 -104 q-46 -42 -129 -74 l-39 67 q140 52 184 152 l-179 0 l0 67 l199 0 q8 45 8 75 l-172 0 l0 347 ZM442 576 l-104 0 l0 -87 l104 0 l0 87 ZM608 576 l-105 0 l0 -87 l105 0 l0 87 ZM608 431 l-105 0 l0 -89 l105 0 l0 89 ZM442 431 l-104 0 l0 -89 l104 0 l0 89 ZM380 720 q-42 -45 -92 -83 l177 0 q38 29 74 83 l-159 0 ZM20 365 q95 92 162 261 l71 -29 q-32 -77 -61 -130 l0 -553 l-78 0 l0 430 q-23 -31 -62 -69 l-32 90 ZM235 823 q-61 -139 -174 -241 l-36 78 q82 69 135 191 l75 -28 ZM948 727 l-232 0 l0 78 l232 0 l0 -78 ZM963 461 l-73 0 l0 -443 q0 -58 -17 -80 q-16 -23 -82 -23 l-82 0 l-10 84 l77 -1 q22 0 29 6 q7 4 7 23 l0 434 l-107 0 l0 78 l258 0 l0 -78 Z" /><glyph glyph-name="" unicode="&#x964d;" d="M895 779 l0 -70 q-68 -99 -167 -175 q116 -63 250 -92 l-36 -74 q-162 47 -280 119 q-129 -79 -285 -113 l-28 71 q139 29 246 92 q-63 57 -106 119 q-51 -50 -104 -81 l-45 59 q133 83 207 218 l81 -16 q-16 -31 -33 -57 l300 0 ZM540 709 q-4 -4 -5 -6 q44 -64 124 -125 q81 58 143 131 l-262 0 ZM915 261 l-155 0 l0 -121 l195 0 l0 -74 l-195 0 l0 -150 l-79 0 l0 150 l-343 0 l0 74 l86 0 l0 195 l257 0 l0 58 l79 0 l0 -58 l155 0 l0 -74 ZM681 261 l-182 0 l0 -121 l182 0 l0 121 ZM359 816 l0 -70 q-18 -61 -103 -241 q101 -118 101 -254 q0 -99 -67 -127 q-23 -10 -55 -10 l-63 0 l-11 81 l62 -1 q41 0 51 30 q5 17 5 39 q0 133 -102 236 q58 110 100 245 l-137 0 l0 -828 l-79 0 l0 900 l298 0 Z" /><glyph glyph-name="" unicode="&#x2fbc;&#x9ad8;" d="M651 182 l-301 0 l0 -98 l301 0 l0 98 ZM924 -1 q0 -83 -78 -83 l-143 0 l-14 78 l124 -1 q18 0 22 9 q5 8 5 21 l0 284 l-679 0 l0 -391 l-85 0 l0 457 l848 0 l0 -374 ZM728 22 l-455 0 l0 222 l455 0 l0 -222 ZM820 433 l-641 0 l0 213 l641 0 l0 -213 ZM737 586 l-474 0 l0 -93 l474 0 l0 93 ZM544 844 l0 -71 l420 0 l0 -72 l-928 0 l0 72 l422 0 l0 71 l86 0 Z" /><glyph glyph-name="" unicode="&#x53f7;" d="M866 283 q-12 -154 -30 -229 q-17 -75 -50 -108 q-31 -31 -92 -31 l-156 0 l-19 85 l164 -1 q12 0 24 2 q8 1 21 13 q12 9 20 32 q19 49 28 163 l-528 0 q-26 -48 -43 -73 l-81 32 q69 104 120 219 l-206 0 l0 75 l924 0 l0 -75 l-629 0 q-23 -56 -46 -104 l579 0 ZM868 536 l-736 0 l0 274 l736 0 l0 -274 ZM786 738 l-572 0 l0 -129 l572 0 l0 129 Z" /><glyph glyph-name="" unicode="&#x5408;" d="M755 487 l-508 0 l0 73 q-74 -48 -175 -93 l-48 83 q128 44 244 122 q115 77 188 183 l83 0 q85 -106 193 -179 q104 -70 243 -126 l-47 -83 q-81 35 -173 93 l0 -73 ZM751 563 q-141 94 -253 222 q-93 -125 -247 -222 l500 0 ZM857 374 l0 -456 l-84 0 l0 46 l-546 0 l0 -46 l-84 0 l0 456 l714 0 ZM773 297 l-546 0 l0 -258 l546 0 l0 258 Z" /><glyph glyph-name="" unicode="&#x514b;" d="M964 671 l-420 0 l0 -96 l318 0 l0 -304 l-211 0 l0 -239 q0 -24 25 -24 l152 0 q32 0 39 18 q14 30 21 136 l78 -19 q-12 -143 -45 -181 q-17 -20 -32 -26 q-17 -5 -40 -5 l-194 0 q-62 0 -79 32 q-7 14 -7 37 l0 271 l-167 0 q-10 -147 -88 -229 q-77 -80 -241 -125 l-39 79 q151 36 215 96 q66 63 70 179 l-178 0 l0 304 l318 0 l0 96 l-421 0 l0 77 l421 0 l0 95 l85 0 l0 -95 l420 0 l0 -77 ZM782 503 l-560 0 l0 -158 l560 0 l0 158 Z" /><glyph glyph-name="" unicode="&#x523b;" d="M512 574 q-52 -127 -167 -242 q-113 -115 -273 -187 l-43 69 q110 51 206 126 q-84 93 -176 160 l47 62 q28 -19 62 -47 q54 63 91 138 l-222 0 l0 75 l251 0 l0 116 l82 0 l0 -116 l240 0 l0 -75 l-258 0 q-45 -90 -127 -189 q52 -51 68 -71 q94 93 150 218 l69 -37 ZM735 786 l0 -643 l-83 0 l0 643 l83 0 ZM24 -8 q353 135 498 448 l68 -39 q-56 -125 -161 -236 q71 -92 189 -152 l-49 -71 l-46 28 q-12 8 -61 50 q-54 52 -87 92 q-137 -122 -305 -192 l-46 72 ZM924 844 l0 -843 q0 -64 -40 -77 q-17 -7 -47 -7 l-134 0 l-13 82 l133 -1 q11 0 15 4 q3 5 3 16 l0 826 l83 0 Z" /><glyph glyph-name="" unicode="&#x56fd;" d="M157 -84 l-81 0 l0 883 l848 0 l0 -883 l-82 0 l0 47 l-685 0 l0 -47 ZM157 38 l685 0 l0 685 l-685 0 l0 -685 ZM786 649 l0 -69 l-256 0 l0 -147 l236 0 l0 -66 l-236 0 l0 -179 l270 0 l0 -71 l-601 0 l0 71 l253 0 l0 179 l-215 0 l0 66 l215 0 l0 147 l-233 0 l0 69 l567 0 ZM659 196 q-27 58 -76 134 l67 33 q56 -81 79 -132 l-70 -35 Z" /><glyph glyph-name="" unicode="&#x5ffd;" d="M917 762 q-16 -356 -68 -421 q-26 -32 -96 -32 l-122 0 l-18 82 l122 -1 q41 0 54 22 q12 20 23 88 q13 80 16 186 l-126 0 q-31 -117 -108 -222 q-77 -104 -192 -185 l-61 61 q95 57 165 138 q68 82 115 208 l-123 0 q-47 -107 -151 -205 q-104 -98 -246 -158 l-50 72 q123 38 217 119 q96 81 145 172 l-140 0 q-97 -102 -199 -156 l-49 70 q71 32 145 98 q73 65 120 149 l96 -10 q-28 -46 -49 -75 l580 0 ZM17 4 q78 84 122 225 l77 -27 q-16 -64 -54 -138 q-36 -72 -78 -114 l-67 54 ZM348 174 l0 -136 q0 -17 8 -24 q6 -6 31 -6 l205 0 q41 0 56 18 q13 20 22 97 l84 -22 q-17 -104 -40 -136 q-24 -33 -97 -33 l-272 0 q-79 0 -79 67 l0 175 l82 0 ZM542 83 q-66 69 -171 128 l51 56 q118 -68 173 -123 l-53 -61 ZM909 -48 q-22 60 -72 132 q-53 76 -95 123 l66 41 q109 -118 173 -249 l-72 -47 Z" /><glyph glyph-name="" unicode="&#x2fbb;&#x9aa8;" d="M860 330 l0 151 l-720 0 l0 -151 l-81 0 l0 218 l129 0 l0 263 l622 0 l0 -263 l131 0 l0 -218 l-81 0 ZM796 -10 q0 -40 -16 -56 q-16 -18 -58 -18 l-166 0 l-17 85 l155 -1 q24 0 24 25 l0 66 l-435 0 l0 -175 l-79 0 l0 499 l592 0 l0 -425 ZM732 742 l-467 0 l0 -194 l164 0 l0 135 l303 0 l0 59 ZM733 623 l-226 0 l0 -75 l226 0 l0 75 ZM718 350 l-435 0 l0 -69 l435 0 l0 69 ZM718 219 l-435 0 l0 -68 l435 0 l0 68 Z" /><glyph glyph-name="" unicode="&#x4eca;" d="M23 545 q281 104 435 297 l85 0 q162 -210 434 -299 l-44 -80 q-273 107 -434 306 q-93 -105 -194 -175 q-100 -70 -236 -127 l-46 78 ZM264 486 l0 74 l469 0 l0 -74 l-469 0 ZM877 301 q-59 -135 -197 -243 q-139 -109 -313 -145 l-38 79 q318 69 448 309 l-684 0 l0 76 l784 0 l0 -76 Z" /><glyph glyph-name="" unicode="&#x56f0;" d="M764 169 q-148 106 -227 260 l0 -347 l-74 0 l0 348 q-46 -79 -101 -141 q-51 -59 -131 -123 l-45 76 q158 99 246 253 l-219 0 l0 71 l250 0 l0 127 l74 0 l0 -127 l252 0 l0 -71 l-223 0 q79 -151 241 -255 l-43 -71 ZM911 -82 l-82 0 l0 50 l-657 0 l0 -50 l-83 0 l0 888 l822 0 l0 -888 ZM829 729 l-657 0 l0 -684 l657 0 l0 684 Z" /><glyph glyph-name="" unicode="&#x6606;" d="M863 813 l0 -373 l-730 0 l0 373 l730 0 ZM782 745 l-568 0 l0 -85 l568 0 l0 85 ZM782 599 l-568 0 l0 -87 l568 0 l0 87 ZM481 -15 q-256 -36 -429 -56 l-11 79 q117 9 109 8 l0 390 l82 0 l0 -113 l240 0 l0 -75 l-240 0 l0 -194 q132 13 249 34 l0 -73 ZM608 265 q66 21 141 55 q78 35 132 72 l48 -62 q-106 -75 -321 -142 l0 -152 q0 -16 6 -24 q5 -6 24 -6 l193 0 q15 0 25 5 q9 5 16 39 q7 33 9 101 l78 -23 q-9 -122 -22 -148 q-20 -39 -43 -46 q-18 -5 -37 -5 l-242 0 q-90 0 -90 71 l0 406 l83 0 l0 -141 Z" /><glyph glyph-name="" unicode="&#x6839;" d="M975 292 q-74 -79 -176 -149 q68 -85 186 -150 l-50 -77 q-122 74 -197 175 q-77 103 -122 268 l-102 0 l0 -322 q107 18 175 37 l7 -73 q-149 -42 -339 -68 l-17 81 l94 11 l0 792 l499 0 l0 -458 l-239 0 q31 -93 64 -151 q93 68 153 138 l64 -54 ZM852 744 l-338 0 l0 -118 l338 0 l0 118 ZM852 556 l-338 0 l0 -123 l338 0 l0 123 ZM374 240 q-61 81 -97 159 l0 -484 l-80 0 l0 494 q-48 -147 -145 -279 l-32 95 q63 75 106 171 q44 90 69 181 l-157 0 l0 75 l159 0 l0 192 l80 0 l0 -192 l124 0 l0 -75 l-124 0 l0 -56 q53 -118 138 -204 l-41 -77 Z" /><glyph glyph-name="" unicode="&#x6df7;" d="M923 810 l0 -376 l-595 0 l0 376 l595 0 ZM843 740 l-436 0 l0 -85 l436 0 l0 85 ZM843 593 l-436 0 l0 -89 l436 0 l0 89 ZM350 28 l0 373 l80 0 l0 -116 l181 0 l0 -76 l-181 0 l0 -173 q112 14 178 28 l3 -74 q-199 -40 -375 -52 l-16 79 l130 11 ZM238 661 q-30 27 -82 61 q-53 35 -89 51 l45 67 q94 -40 176 -106 l-50 -73 ZM186 397 q-72 63 -165 111 l43 69 q97 -46 172 -105 l-50 -75 ZM281 275 q-88 -212 -207 -355 l-56 77 q119 140 197 329 l66 -51 ZM730 249 q97 45 172 115 l55 -59 q-86 -74 -227 -137 l0 -132 q0 -19 6 -27 q7 -7 24 -7 l88 0 q16 0 22 6 q15 14 18 127 l78 -17 q-2 -116 -22 -153 q-18 -38 -70 -38 l-140 0 q-42 0 -64 14 q-20 14 -20 52 l0 408 l80 0 l0 -152 Z" /><glyph glyph-name="" unicode="&#x4e09;" d="M916 774 l0 -84 l-832 0 l0 84 l832 0 ZM865 435 l0 -83 l-730 0 l0 83 l730 0 ZM963 65 l0 -85 l-926 0 l0 85 l926 0 Z" /><glyph glyph-name="" unicode="&#x2f2d;&#x5c71;" d="M157 71 l299 0 l0 773 l86 0 l0 -773 l302 0 l0 603 l85 0 l0 -758 l-85 0 l0 72 l-687 0 l0 -72 l-86 0 l0 758 l86 0 l0 -603 Z" /><glyph glyph-name="" unicode="&#x501f;" d="M889 -84 l-80 0 l0 44 l-388 0 l0 -44 l-80 0 l0 455 l548 0 l0 -455 ZM809 302 l-388 0 l0 -102 l388 0 l0 102 ZM809 135 l-388 0 l0 -106 l388 0 l0 106 ZM508 844 l0 -115 l212 0 l0 115 l80 0 l0 -115 l137 0 l0 -71 l-137 0 l0 -136 l163 0 l0 -73 l-697 0 l0 73 l163 0 l0 136 l-139 0 l0 71 l139 0 l0 115 l79 0 ZM720 658 l-212 0 l0 -136 l212 0 l0 136 ZM215 -84 l-80 0 l0 521 q-28 -47 -69 -97 l-43 94 q63 74 107 181 q46 105 66 233 l82 -11 q-19 -121 -63 -231 l0 -690 Z" /><glyph glyph-name="" unicode="&#x9152;" d="M924 622 l0 -708 l-77 0 l0 40 l-444 0 l0 -40 l-78 0 l0 708 l178 0 l0 114 l-208 0 l0 74 l667 0 l0 -74 l-226 0 l0 -114 l188 0 ZM847 300 l-110 0 q-29 0 -47 12 q-16 15 -20 26 q-3 14 -3 31 l0 182 l-94 0 l0 -19 q0 -122 -44 -192 q-22 -35 -34 -48 l-33 -33 l-47 62 q44 44 66 87 q22 44 22 125 l0 18 l-100 0 l0 -341 l444 0 l0 90 ZM736 551 l0 -158 q0 -16 6 -21 q5 -4 25 -4 l80 0 l0 183 l-111 0 ZM667 622 l0 114 l-94 0 l0 -114 l94 0 ZM847 141 l-444 0 l0 -113 l444 0 l0 113 ZM232 666 q-70 65 -168 111 l45 65 q105 -49 174 -106 l-51 -70 ZM186 401 q-59 59 -161 106 l40 70 q96 -40 169 -102 l-48 -74 ZM25 -10 q108 133 182 337 l70 -45 q-82 -216 -193 -365 l-59 73 Z" /><glyph glyph-name="" unicode="&#x5c31;" d="M410 -13 q21 14 60 44 q28 25 66 68 q40 46 68 99 q28 59 46 136 q20 86 20 181 l0 35 l-142 0 l0 76 l142 0 l0 217 l77 0 l0 -217 l212 0 l0 -76 l-212 0 l0 -37 q0 -24 -3 -68 l54 0 l0 -417 q0 -21 22 -21 l31 0 q21 0 27 17 q7 14 10 66 q3 54 2 87 l74 -26 q-5 -144 -17 -177 q-13 -45 -70 -45 l-77 0 q-48 0 -62 17 q-17 14 -17 58 l0 302 q-53 -236 -252 -389 l-59 70 ZM245 740 l0 103 l78 0 l0 -103 l205 0 l0 -75 l-491 0 l0 75 l208 0 ZM492 584 l0 -281 l-169 0 l0 -309 q0 -55 -31 -70 q-15 -7 -42 -7 l-116 0 l-16 80 l104 -1 q23 0 23 24 l0 283 l-167 0 l0 281 l414 0 ZM416 515 l-262 0 l0 -143 l262 0 l0 143 ZM887 649 q-43 82 -100 149 l61 39 q46 -47 108 -149 l-69 -39 ZM24 48 q31 40 54 100 q23 59 30 105 l69 -16 q-20 -137 -94 -243 l-59 54 ZM447 64 q-34 98 -73 169 l69 26 q48 -78 78 -159 l-74 -36 Z" /><glyph glyph-name="" unicode="&#x96c6;" d="M486 749 q20 47 33 96 l85 -11 q-13 -37 -36 -85 l344 0 l0 -63 l-351 0 l0 -66 l324 0 l0 -60 l-324 0 l0 -67 l324 0 l0 -61 l-324 0 l0 -71 l379 0 l0 -64 l-400 0 l0 -70 l420 0 l0 -70 l-347 0 q139 -95 360 -136 l-39 -83 q-240 63 -393 192 l0 -213 l-80 0 l0 209 q-136 -117 -395 -187 l-38 82 q227 43 367 136 l-355 0 l0 70 l421 0 l0 70 l-305 0 l0 282 q-29 -29 -83 -70 l-48 70 q154 112 214 267 l85 -14 q-20 -48 -40 -83 l202 0 ZM485 560 l-252 0 l0 -67 l252 0 l0 67 ZM244 686 q-3 -6 -11 -16 l0 -50 l252 0 l0 66 l-241 0 ZM485 432 l-252 0 l0 -71 l252 0 l0 71 Z" /><glyph glyph-name="" unicode="&#x719f;" d="M481 686 l0 -159 l-387 0 l0 159 l387 0 ZM406 638 l-237 0 l0 -65 l237 0 l0 65 ZM736 844 q0 -51 -3 -113 l162 0 q-18 -313 -18 -370 q0 -114 18 -114 q21 0 40 106 l50 -42 q-21 -90 -43 -127 q-24 -36 -62 -36 q-51 0 -65 68 q-11 57 -11 132 q0 67 11 306 l-87 0 q-8 -105 -26 -189 q49 -52 84 -107 l-55 -65 q-31 50 -54 83 q-53 -149 -170 -259 l-55 58 q123 108 170 268 q-32 37 -97 92 l44 52 q35 -28 71 -60 q10 73 16 127 l-125 0 l0 72 l-489 0 l0 58 l209 0 l0 60 l78 0 l0 -60 l207 0 l0 -53 l125 0 q3 49 4 113 l71 0 ZM42 251 l-2 69 q68 0 216 6 l0 60 l38 0 q55 18 89 41 l-332 0 l0 56 l442 0 l0 -56 q-55 -43 -165 -84 l0 -13 q117 8 197 18 l-3 -64 q-117 -13 -194 -19 l0 -67 q0 -47 -25 -59 q-13 -6 -34 -6 l-112 0 l-9 67 l89 -1 q12 0 15 4 q4 4 4 16 l0 42 l-214 -10 ZM35 -34 q77 65 119 160 l71 -32 q-42 -103 -126 -182 l-64 54 ZM345 -79 q6 47 6 97 q0 52 -6 94 l76 0 q7 -46 7 -98 q0 -49 -3 -88 l-80 -5 ZM614 -79 q-18 101 -48 193 l73 6 q38 -100 56 -188 l-81 -11 ZM904 -85 q-57 102 -124 186 l69 35 q71 -78 129 -177 l-74 -44 Z" /><glyph glyph-name="" unicode="&#x2f25;&#x5973;" d="M964 614 l0 -81 l-144 0 q-52 -244 -190 -380 q170 -87 285 -162 l-67 -74 q-121 90 -289 176 q-176 -133 -471 -175 l-30 85 q257 38 412 134 q-204 95 -320 136 q70 114 132 260 l-246 0 l0 81 l280 0 q46 111 81 236 l91 -10 q-36 -117 -78 -226 l554 0 ZM376 533 q-53 -122 -109 -223 q148 -56 280 -117 q134 120 180 340 l-351 0 Z" /><glyph glyph-name="" unicode="&#x6676;" d="M940 374 l0 -455 l-77 0 l0 39 l-257 0 l0 -39 l-76 0 l0 455 l410 0 ZM863 136 l-257 0 l0 -109 l257 0 l0 109 ZM863 305 l-257 0 l0 -105 l257 0 l0 105 ZM448 374 l0 -455 l-76 0 l0 39 l-236 0 l0 -39 l-76 0 l0 455 l388 0 ZM372 136 l-236 0 l0 -109 l236 0 l0 109 ZM372 305 l-236 0 l0 -105 l236 0 l0 105 ZM828 817 l0 -372 l-656 0 l0 372 l656 0 ZM252 663 l495 0 l0 86 l-495 0 l0 -86 ZM252 511 l495 0 l0 90 l-495 0 l0 -90 Z" /><glyph glyph-name="" unicode="&#x7126;" d="M509 722 q35 62 51 123 l88 -9 q-18 -45 -55 -114 l327 0 l0 -72 l-328 0 l0 -87 l292 0 l0 -66 l-292 0 l0 -87 l292 0 l0 -66 l-292 0 l0 -93 l346 0 l0 -72 l-769 0 l0 386 q-45 -50 -89 -81 l-50 67 q76 60 128 127 q55 70 103 172 l85 -12 q-27 -61 -61 -116 l224 0 ZM516 497 l-268 0 l0 -87 l268 0 l0 87 ZM516 650 l-268 0 l0 -87 l268 0 l0 87 ZM516 344 l-268 0 l0 -93 l268 0 l0 93 ZM30 -36 q85 82 130 181 l74 -33 q-56 -119 -140 -202 l-64 54 ZM344 -76 q5 40 5 90 q0 57 -7 110 l77 1 q11 -124 8 -196 l-83 -5 ZM594 -75 q-9 91 -40 200 l73 7 q33 -102 49 -198 l-82 -9 ZM902 -90 q-53 116 -119 202 l70 33 q78 -102 122 -195 l-73 -40 Z" /><glyph glyph-name="" unicode="&#x848b;" d="M372 837 l0 -59 l260 0 l0 59 l77 0 l0 -59 l240 0 l0 -69 l-240 0 l0 -59 l-77 0 l0 59 l-260 0 l0 -59 l-78 0 l0 59 l-239 0 l0 69 l239 0 l0 59 l78 0 ZM42 136 q98 37 203 98 l0 395 l73 0 l0 -707 l-73 0 l0 239 q-104 -69 -183 -106 l-20 81 ZM763 351 l-56 40 q86 78 146 180 l64 -32 q-52 -86 -121 -155 l56 0 l0 -84 l97 0 l0 -68 l-97 0 l0 -229 q0 -60 -42 -75 q-19 -6 -49 -6 l-125 0 l-17 78 l124 -1 q21 0 28 7 q7 6 7 26 l0 200 l-433 0 l0 68 l433 0 l0 67 l-15 -16 ZM157 362 q-45 111 -98 186 l58 34 q60 -84 105 -187 l-65 -33 ZM456 347 q-26 66 -64 117 l63 31 q38 -55 65 -120 l-64 -28 ZM611 378 q-20 75 -47 123 l66 24 q27 -47 51 -121 l-70 -26 ZM553 4 q-51 83 -123 155 l54 46 q67 -61 133 -151 l-64 -50 ZM375 592 q306 14 465 73 l34 -63 q-161 -58 -484 -77 l-15 67 Z" /><glyph glyph-name="" unicode="&#x5e38;" d="M892 40 q0 -64 -34 -76 q-15 -7 -44 -7 l-125 0 l-21 79 l104 -1 q22 0 29 6 q7 6 7 25 l0 125 l-268 0 l0 -275 l-83 0 l0 275 l-266 0 l0 -234 l-83 0 l0 305 l349 0 l0 70 l-240 0 l0 242 l566 0 l0 -242 l-243 0 l0 -70 l352 0 l0 -222 ZM704 506 l-408 0 l0 -109 l408 0 l0 109 ZM456 705 l0 139 l83 0 l0 -139 l128 0 q17 25 43 71 q30 52 37 71 l76 -33 q-17 -43 -63 -109 l182 0 l0 -238 l-81 0 l0 168 l-720 0 l0 -168 l-83 0 l0 238 l187 0 q-36 69 -68 107 l75 31 q53 -70 84 -138 l120 0 Z" /><glyph glyph-name="" unicode="&#x5c3d;" d="M898 499 l-205 0 q40 -151 146 -285 q60 -76 135 -129 l-59 -76 q-108 81 -193 221 q-83 136 -112 269 l-380 0 q-3 -199 -34 -325 q-34 -123 -97 -204 l-74 58 q45 64 61 99 q14 31 31 97 q28 112 28 257 l0 331 l753 0 l0 -313 ZM814 738 l-584 0 l0 -167 l584 0 l0 167 ZM604 190 q-124 86 -280 141 l38 71 q171 -61 289 -137 l-47 -75 ZM712 -95 q-111 59 -216 91 q-101 33 -249 65 l30 72 q295 -56 483 -154 l-48 -74 Z" /><glyph glyph-name="" unicode="&#x636e;" d="M741 558 l0 -112 l224 0 l0 -74 l-224 0 l0 -114 l185 0 l0 -346 l-77 0 l0 43 l-287 0 l0 -43 l-78 0 l0 346 l178 0 l0 114 l-202 0 q-4 -281 -132 -454 l-60 62 q115 152 115 408 l0 422 l552 0 l0 -252 l-194 0 ZM460 446 l202 0 l0 112 l-202 0 l0 -112 ZM857 740 l-397 0 l0 -113 l397 0 l0 113 ZM849 190 l-287 0 l0 -166 l287 0 l0 166 ZM355 338 q-52 -24 -111 -45 l0 -300 q0 -48 -22 -63 q-20 -17 -63 -17 l-105 0 l-13 85 l92 -1 q20 0 24 5 q5 3 5 18 l0 244 q-55 -19 -125 -38 l-13 84 q45 11 138 39 l0 241 l-130 0 l0 75 l130 0 l0 183 l82 0 l0 -183 l111 0 l0 -75 l-111 0 l0 -214 q65 22 100 36 l11 -74 Z" /><glyph glyph-name="" unicode="&#x63a5;" d="M506 340 q27 48 50 95 l82 -18 q-31 -58 -42 -77 l365 0 l0 -73 l-98 0 q-43 -121 -107 -189 q126 -58 182 -102 l-42 -67 q-93 68 -200 115 q-135 -88 -361 -112 l-25 78 q179 13 294 71 q-133 48 -240 73 q54 68 96 133 l-136 0 l0 63 q-13 -7 -88 -37 l0 -303 q0 -78 -81 -78 l-105 0 l-11 84 l88 0 q18 0 23 4 q6 5 6 22 l0 240 l-117 -40 l-18 84 q77 20 135 42 l0 239 l-123 0 l0 75 l123 0 l0 184 l80 0 l0 -184 l100 0 l0 -75 l-100 0 l0 -211 q44 16 97 39 l11 -75 l162 0 ZM673 846 l0 -93 l265 0 l0 -73 l-102 0 q-20 -87 -47 -155 l172 0 l0 -75 l-637 0 l0 75 l154 0 q-15 74 -40 155 l-89 0 l0 73 l243 0 l0 93 l81 0 ZM552 267 q-38 -61 -68 -99 q78 -16 192 -58 q63 57 99 157 l-223 0 ZM710 525 q27 63 44 155 l-237 0 q26 -90 40 -155 l153 0 Z" /><glyph glyph-name="" unicode="&#x5c16;" d="M927 -85 q-152 43 -259 123 q-41 30 -88 84 q-43 49 -79 113 q-55 -122 -170 -205 q-113 -80 -260 -118 l-40 85 q200 47 312 153 q46 43 77 118 l-384 0 l0 79 l410 0 q9 37 14 80 l85 -5 q-4 -52 -9 -75 l425 0 l0 -79 l-391 0 q140 -217 396 -269 l-39 -84 ZM25 545 q141 107 209 242 l74 -37 q-35 -72 -102 -151 q-63 -77 -126 -124 l-55 70 ZM755 784 q100 -152 219 -235 l-59 -75 q-150 124 -234 274 l74 36 ZM541 543 q0 -80 -90 -80 l-144 0 l-12 86 l128 -1 q21 0 27 7 q7 7 7 26 l0 263 l84 0 l0 -301 Z" /><glyph glyph-name="" unicode="&#x8df5;" d="M194 56 l0 433 l-139 0 l0 311 l309 0 l0 -311 l-98 0 l0 -148 l94 0 l0 -75 l-94 0 l0 -195 q57 12 107 26 l3 -71 q-170 -52 -338 -79 l-11 79 l34 6 l0 364 l73 0 l0 -352 l60 12 ZM291 730 l-163 0 l0 -171 l163 0 l0 171 ZM645 612 l7 -83 l277 23 l5 -70 l-274 -24 q10 -73 13 -86 l291 25 l6 -72 l-282 -24 q14 -61 42 -133 q59 48 90 85 l27 35 l70 -35 q-60 -89 -152 -159 q18 -31 45 -60 q27 -28 43 -28 q16 0 31 26 q13 23 37 100 l61 -49 q-30 -89 -60 -129 q-30 -36 -70 -36 q-41 0 -84 40 q-44 42 -70 89 q-125 -81 -293 -124 l-35 75 q162 41 292 122 q-35 81 -56 173 l-211 -18 l-7 72 l204 18 l-11 86 l-161 -14 l-7 71 l161 14 q-6 49 -7 83 l-169 -15 l-6 72 l170 15 q-4 61 -6 164 l82 1 q0 -80 3 -158 l303 27 l5 -73 l-304 -26 ZM843 707 q-47 46 -134 90 l46 56 q85 -40 139 -90 l-51 -56 Z" /><glyph glyph-name="" unicode="&#x5373;" d="M415 737 l-245 0 l0 -125 l245 0 l0 125 ZM370 275 q89 -130 153 -288 l-78 -35 q-24 64 -44 108 q-113 -36 -354 -91 l-17 75 l61 12 l0 755 l402 0 l0 -475 l-323 0 l0 -263 q124 28 199 52 q-41 78 -66 119 l67 31 ZM415 542 l-245 0 l0 -131 l245 0 l0 131 ZM928 134 q0 -85 -93 -85 l-121 0 l-20 83 l116 -1 q15 0 20 1 q17 3 17 32 l0 572 l-197 0 l0 -818 l-81 0 l0 893 l359 0 l0 -677 Z" /><glyph glyph-name="" unicode="&#x8010;" d="M427 -43 l-69 0 l0 573 l-72 0 l0 -573 l-69 0 l0 573 l-72 0 l0 -614 l-74 0 l0 686 l176 0 q23 59 34 122 l-242 0 l0 77 l572 0 l0 -77 l-249 0 q-16 -70 -35 -122 l249 0 l0 -614 q0 -40 -16 -56 q-17 -16 -51 -16 l-70 0 l-12 69 l0 -28 ZM427 -2 l54 -1 q19 0 21 11 l0 522 l-75 0 l0 -532 ZM886 648 l75 0 l0 -80 l-75 0 l0 -568 q0 -45 -18 -65 q-19 -19 -66 -19 l-125 0 l-15 84 l113 -1 q20 0 24 5 q4 3 4 22 l0 542 l-192 0 l0 80 l192 0 l0 195 l83 0 l0 -195 ZM684 179 q-18 108 -78 269 l76 26 q57 -142 81 -270 l-79 -25 Z" /><glyph glyph-name="" unicode="&#x2f95;&#x8c37;" d="M25 381 q125 36 234 111 q112 74 194 172 l91 0 q74 -87 168 -154 q97 -68 263 -128 l-45 -78 q-213 92 -314 177 q-49 41 -72 63 q-17 18 -46 54 q-123 -147 -324 -250 l654 0 l0 -433 l-83 0 l0 47 l-491 0 l0 -47 l-82 0 l0 433 q-59 -29 -98 -44 l-49 77 ZM745 274 l-490 0 l0 -237 l490 0 l0 237 ZM35 669 q173 60 298 184 l63 -50 q-59 -62 -142 -115 q-85 -58 -170 -92 l-49 73 ZM660 855 q133 -118 302 -179 l-40 -76 q-187 68 -327 208 l65 47 Z" /><glyph glyph-name="" unicode="&#x7537;" d="M936 304 q-1 -101 -14 -192 q-12 -88 -28 -125 q-17 -39 -44 -55 q-28 -15 -72 -15 l-162 0 l-18 79 l160 -1 l25 1 q10 4 21 14 q13 13 20 35 q18 60 25 182 l-375 0 q-10 -29 -21 -55 q-13 -26 -39 -63 q-31 -42 -70 -71 q-37 -30 -110 -64 q-66 -32 -162 -56 l-37 76 q219 53 300 146 q25 30 35 46 l18 41 l-351 0 l0 77 l376 0 q13 43 17 92 l-323 0 l0 419 l788 0 l0 -419 l-385 0 q-4 -41 -14 -92 l440 0 ZM461 744 l-276 0 l0 -104 l276 0 l0 104 ZM461 574 l-276 0 l0 -106 l276 0 l0 106 ZM817 744 l-281 0 l0 -104 l281 0 l0 104 ZM817 574 l-281 0 l0 -106 l281 0 l0 106 Z" /><glyph glyph-name="" unicode="&#x6d25;" d="M631 146 l330 0 l0 -73 l-330 0 l0 -156 l-79 0 l0 156 l-296 0 l0 73 l296 0 l0 82 l-263 0 l0 69 l263 0 l0 85 l-239 0 l0 68 l239 0 l0 89 l-285 0 l0 67 l285 0 l0 87 l-239 0 l0 71 l239 0 l0 80 l79 0 l0 -80 l281 0 l0 -158 l49 0 l0 -67 l-49 0 l0 -157 l-281 0 l0 -85 l300 0 l0 -69 l-300 0 l0 -82 ZM832 693 l-201 0 l0 -87 l201 0 l0 87 ZM832 539 l-201 0 l0 -89 l201 0 l0 89 ZM234 666 q-66 59 -159 105 l44 64 q93 -44 161 -99 l-46 -70 ZM26 -13 q100 144 161 333 l67 -47 q-24 -81 -76 -191 q-52 -110 -89 -162 l-63 67 ZM181 407 q-80 65 -154 99 l43 66 q44 -18 91 -47 q47 -28 70 -52 l-50 -66 Z" /><glyph glyph-name="" unicode="&#x6ce5;" d="M919 808 l0 -301 l-497 0 l0 -84 q0 -135 -30 -267 q-30 -134 -91 -235 l-77 47 q59 91 80 181 q37 155 37 272 l0 387 l578 0 ZM838 735 l-416 0 l0 -154 l416 0 l0 154 ZM944 366 q-64 -43 -169 -84 q-108 -39 -180 -55 l0 -192 q0 -19 7 -23 q8 -6 22 -6 l201 0 q22 0 29 7 q19 19 29 179 l78 -21 q-3 -55 -12 -117 q-9 -61 -18 -80 q-22 -46 -90 -46 l-249 0 q-79 0 -79 76 l0 460 l82 0 l0 -164 q174 46 299 128 l50 -62 ZM241 662 q-68 60 -168 112 l44 65 q90 -37 175 -105 l-51 -72 ZM189 399 q-75 61 -159 101 l39 73 q100 -42 166 -102 l-46 -72 ZM30 -6 q104 125 175 332 l70 -47 q-84 -235 -189 -361 l-56 76 Z" /><glyph glyph-name="" unicode="&#x5e97;" d="M961 462 l-365 0 l0 -138 l299 0 l0 -408 l-81 0 l0 50 l-476 0 l0 -50 l-80 0 l0 408 l256 0 l0 311 l82 0 l0 -96 l365 0 l0 -77 ZM814 249 l-476 0 l0 -207 l476 0 l0 207 ZM469 747 l0 96 l85 0 l0 -96 l404 0 l0 -77 l-761 0 l0 -307 q0 -291 -106 -439 l-65 63 q20 30 30 49 q12 27 26 66 q32 90 32 263 l0 382 l355 0 Z" /><glyph glyph-name="" unicode="&#x52aa;" d="M440 413 q129 34 225 91 q-72 80 -117 181 l74 25 q41 -92 107 -160 q76 66 120 176 l-352 0 l0 70 l433 0 l0 -66 q-50 -141 -146 -228 q84 -64 192 -98 l-45 -76 q-115 43 -211 124 q-87 -58 -201 -99 q-8 -48 -14 -73 l380 0 q-15 -250 -43 -304 q-7 -15 -15 -24 q-7 -9 -31 -23 q-23 -13 -58 -13 l-128 0 l-22 83 l129 -5 q41 -2 53 27 q18 41 27 181 l-317 0 q-13 -34 -30 -63 q-16 -30 -46 -63 q-33 -38 -71 -63 q-98 -66 -252 -97 l-35 83 q179 29 254 89 q38 29 58 55 q20 25 36 59 l-310 0 l0 78 l339 0 q8 27 16 80 l35 -3 l-34 56 ZM277 845 q-16 -52 -28 -82 l191 0 l0 -31 q0 -20 -14 -71 q-13 -47 -30 -83 q-15 -33 -45 -72 q38 -18 99 -55 l-48 -62 q-49 34 -104 62 q-93 -81 -235 -125 l-30 73 q117 30 192 85 q-60 27 -165 61 q37 61 79 149 l-102 0 l0 69 l131 0 q18 43 31 88 l78 -6 ZM220 694 l-55 -116 q47 -14 119 -43 q25 28 44 64 q16 30 22 49 l12 46 l-142 0 Z" /><glyph glyph-name="" unicode="&#x5974;" d="M399 -18 q161 107 255 229 q-105 181 -155 468 l73 11 q39 -226 132 -408 q114 191 132 444 l-403 0 l0 78 l494 0 q-21 -358 -176 -600 q84 -120 218 -209 l-50 -80 q-140 113 -217 221 q-103 -129 -245 -227 l-58 73 ZM432 668 q0 -164 -25 -282 q-26 -123 -59 -191 q51 -35 91 -70 l-54 -70 q-40 37 -78 67 q-80 -121 -216 -212 l-63 69 q133 72 215 189 q-92 61 -192 106 q39 99 51 150 q13 44 39 166 l-105 0 l0 78 l117 0 q11 76 17 176 l85 -7 q-8 -94 -19 -169 l196 0 ZM222 590 q-26 -147 -76 -277 q80 -41 136 -75 q64 138 73 352 l-133 0 Z" /><glyph glyph-name="" unicode="&#x5c4a;" d="M930 437 l0 -521 l-78 0 l0 49 l-507 0 l0 -49 l-78 0 l0 521 l291 0 l0 107 l-363 0 l0 -148 q0 -101 -23 -242 q-22 -138 -81 -236 l-64 67 q37 63 58 167 q21 102 24 154 q3 53 3 91 l0 411 l804 0 l0 -264 l-281 0 l0 -107 l295 0 ZM558 367 l-213 0 l0 -127 l213 0 l0 127 ZM852 367 l-217 0 l0 -127 l217 0 l0 127 ZM558 174 l-213 0 l0 -139 l213 0 l0 139 ZM852 174 l-217 0 l0 -139 l217 0 l0 139 ZM835 735 l-640 0 l0 -121 l640 0 l0 121 Z" /><glyph glyph-name="" unicode="&#x5185;" d="M460 844 l84 0 l0 -146 l374 0 l0 -696 q0 -85 -83 -85 l-170 0 l-13 84 l155 -1 q28 0 28 26 l0 594 l-286 0 q30 -230 277 -392 l-55 -70 q-141 108 -201 207 q-44 70 -67 135 q-28 -65 -57 -118 q-26 -49 -86 -113 q-57 -60 -133 -107 l-51 72 q233 124 277 386 l-287 0 l0 -703 l-84 0 l0 781 l378 0 l0 146 Z" /><glyph glyph-name="" unicode="&#x5357;" d="M542 844 l0 -89 l421 0 l0 -78 l-421 0 l0 -98 l362 0 l0 -577 q0 -45 -24 -65 q-23 -19 -56 -19 l-156 0 l-16 79 l144 -1 q25 0 25 24 l0 485 l-640 0 l0 -587 l-83 0 l0 661 l361 0 l0 98 l-422 0 l0 78 l422 0 l0 89 l83 0 ZM355 360 q-16 56 -42 113 l71 23 q32 -68 50 -136 l126 0 q29 63 46 136 l77 -18 q-18 -66 -43 -118 l124 0 l0 -67 l-225 0 l0 -95 l225 0 l0 -68 l-225 0 l0 -192 l-79 0 l0 192 l-219 0 l0 68 l219 0 l0 95 l-219 0 l0 67 l114 0 Z" /><glyph glyph-name="" unicode="&#x5e74;" d="M923 745 l0 -78 l-331 0 l0 -156 l299 0 l0 -77 l-299 0 l0 -201 l370 0 l0 -78 l-370 0 l0 -239 l-81 0 l0 239 l-475 0 l0 78 l154 0 l0 278 l321 0 l0 156 l-245 0 q-89 -142 -184 -217 l-55 72 q80 59 143 149 q60 87 87 179 l88 -18 q-11 -34 -35 -87 l613 0 ZM511 434 l-239 0 l0 -201 l239 0 l0 201 Z" /><glyph glyph-name="" unicode="&#x5ff5;" d="M727 574 l-462 0 l0 43 q-114 -61 -207 -88 l-37 78 q275 79 431 238 l84 0 q169 -164 439 -242 l-38 -75 q-130 43 -210 88 l0 -42 ZM684 640 q-108 63 -188 140 q-66 -71 -190 -140 l378 0 ZM872 504 l0 -68 q-46 -57 -111 -102 q-64 -46 -191 -100 l-48 64 q159 58 245 138 l-650 0 l0 68 l755 0 ZM21 -1 q80 85 116 228 l79 -16 q-42 -171 -127 -263 l-68 51 ZM350 194 l0 -151 q0 -23 8 -29 q9 -6 30 -6 l206 0 q13 0 23 2 q7 1 13 14 q8 12 9 33 l5 65 l81 -19 q-8 -102 -31 -137 q-21 -35 -79 -35 l-268 0 q-79 0 -79 74 l0 189 l82 0 ZM519 139 q-85 72 -189 120 l40 66 q110 -48 196 -116 l-47 -70 ZM896 -45 q-54 115 -172 250 l67 38 q118 -127 177 -242 l-72 -46 Z" /><glyph glyph-name="" unicode="&#x80fd;" d="M456 514 l0 -522 q0 -43 -24 -60 q-25 -17 -51 -17 l-118 0 l-13 81 l105 -2 q23 0 23 21 l0 111 l-221 0 l0 -211 l-77 0 l0 599 l376 0 ZM378 442 l-221 0 l0 -90 l221 0 l0 90 ZM378 288 l-221 0 l0 -96 l221 0 l0 96 ZM103 652 q56 117 77 193 l80 -14 q-42 -105 -76 -175 q73 3 194 14 q-33 56 -64 96 l63 37 q72 -86 140 -216 l-71 -40 q-19 41 -34 67 q-147 -23 -370 -38 l-7 75 l68 1 ZM641 693 q158 47 254 114 l46 -61 q-130 -79 -300 -119 l0 -113 q0 -30 31 -30 l162 0 q18 0 26 5 q23 14 24 123 l77 -24 q-4 -102 -25 -140 q-18 -37 -76 -37 l-214 0 q-88 0 -88 80 l0 354 l83 0 l0 -152 ZM641 379 l0 -146 q130 42 246 116 l49 -63 q-54 -34 -124 -62 q-80 -32 -110 -41 l-61 -18 l0 -127 q0 -21 7 -28 q8 -8 29 -8 l157 0 q19 0 26 7 q17 17 24 137 l77 -21 q-11 -128 -29 -163 q-19 -36 -87 -36 l-199 0 q-88 0 -88 85 l0 368 l83 0 Z" /><glyph glyph-name="" unicode="&#x7164;" d="M287 16 q179 77 291 222 l-244 0 l0 71 l277 0 l0 75 l-183 0 l0 308 l-94 0 l0 70 l94 0 l0 82 l77 0 l0 -82 l297 0 l0 82 l77 0 l0 -82 l81 0 l0 -70 l-81 0 l0 -308 l-191 0 l0 -75 l274 0 l0 -71 l-240 0 q34 -46 100 -106 q65 -59 149 -100 l-46 -71 q-163 108 -237 217 l0 -263 l-77 0 l0 262 q-106 -139 -278 -230 l-46 69 ZM802 692 l-297 0 l0 -86 l297 0 l0 86 ZM802 542 l-297 0 l0 -91 l297 0 l0 91 ZM249 411 q0 -82 -9 -145 q63 -85 135 -145 l-55 -61 q-56 57 -97 115 q-34 -141 -133 -258 l-58 65 q90 107 115 208 q26 106 26 235 l0 419 l76 0 l0 -277 q44 48 76 102 l58 -49 q-25 -41 -67 -88 q-39 -43 -67 -67 l0 -54 ZM23 373 q28 91 28 279 l70 -1 q0 -216 -28 -313 l-70 35 Z" /></font>
</defs>
</svg>
